<?xml version="1.0" encoding="utf-8" standalone="no"?>
<!DOCTYPE svg PUBLIC "-//W3C//DTD SVG 1.1//EN"
  "http://www.w3.org/Graphics/SVG/1.1/DTD/svg11.dtd">
<!-- Created with matplotlib (https://matplotlib.org/) -->
<svg height="360pt" version="1.1" viewBox="0 0 1080 360" width="1080pt" xmlns="http://www.w3.org/2000/svg" xmlns:xlink="http://www.w3.org/1999/xlink">
 <defs>
  <style type="text/css">
*{stroke-linecap:butt;stroke-linejoin:round;}
  </style>
 </defs>
 <g id="figure_1">
  <g id="patch_1">
   <path d="M 0 360 
L 1080 360 
L 1080 0 
L 0 0 
z
" style="fill:#ffffff;"/>
  </g>
  <g id="axes_1">
   <g id="patch_2">
    <path d="M 135 315 
L 972 315 
L 972 43.2 
L 135 43.2 
z
" style="fill:#ffffff;"/>
   </g>
   <g id="PolyCollection_1">
    <path clip-path="url(#pab9ad7d2c2)" d="M 173.045455 301.713015 
L 173.045455 302.434628 
L 176.775401 302.434628 
L 180.505348 302.434628 
L 184.235294 302.434628 
L 187.965241 302.434628 
L 191.695187 302.434628 
L 195.425134 302.434628 
L 199.15508 302.434628 
L 202.885027 302.434628 
L 206.614973 302.434628 
L 210.34492 302.434628 
L 214.074866 302.434628 
L 217.804813 302.434628 
L 221.534759 302.434628 
L 225.264706 302.434628 
L 228.994652 302.434628 
L 232.724599 302.434628 
L 236.454545 302.434628 
L 240.184492 302.434628 
L 243.914439 302.434628 
L 247.644385 302.434628 
L 251.374332 302.434628 
L 255.104278 302.434628 
L 258.834225 302.434628 
L 262.564171 302.434628 
L 266.294118 302.434628 
L 270.024064 302.434628 
L 273.754011 302.434628 
L 277.483957 302.434628 
L 281.213904 302.434628 
L 284.94385 302.434628 
L 288.673797 302.434628 
L 292.403743 302.434628 
L 296.13369 302.434628 
L 299.863636 302.434628 
L 303.593583 302.434628 
L 307.323529 302.434628 
L 311.053476 302.434628 
L 314.783422 302.434628 
L 318.513369 302.434628 
L 322.243316 302.434628 
L 325.973262 302.434628 
L 329.703209 302.434628 
L 333.433155 302.434628 
L 337.163102 302.434628 
L 340.893048 302.434628 
L 344.622995 302.434628 
L 348.352941 302.434628 
L 352.082888 302.434628 
L 355.812834 302.434628 
L 359.542781 302.434628 
L 363.272727 302.434628 
L 367.002674 302.434628 
L 370.73262 302.434628 
L 374.462567 302.434628 
L 378.192513 302.434628 
L 381.92246 302.434628 
L 385.652406 302.434628 
L 389.382353 302.434628 
L 393.112299 302.434628 
L 396.842246 302.434628 
L 400.572193 302.434628 
L 404.302139 302.434628 
L 408.032086 302.434628 
L 411.762032 302.434628 
L 415.491979 302.434628 
L 419.221925 302.434628 
L 422.951872 302.434628 
L 426.681818 302.434628 
L 430.411765 302.434628 
L 434.141711 302.434628 
L 437.871658 302.434628 
L 441.601604 302.434628 
L 445.331551 302.434628 
L 449.061497 302.434628 
L 452.791444 302.434628 
L 456.52139 302.434628 
L 460.251337 302.434628 
L 463.981283 302.434628 
L 467.71123 302.434628 
L 471.441176 302.434628 
L 475.171123 302.434628 
L 478.90107 302.434628 
L 482.631016 302.434628 
L 486.360963 302.434628 
L 490.090909 302.434628 
L 493.820856 302.434628 
L 497.550802 302.434628 
L 501.280749 302.434628 
L 505.010695 302.434628 
L 508.740642 302.434628 
L 512.470588 302.434628 
L 516.200535 302.434628 
L 519.930481 302.434628 
L 523.660428 302.434628 
L 527.390374 302.434628 
L 531.120321 302.434628 
L 534.850267 302.434628 
L 538.580214 302.434628 
L 542.31016 302.434628 
L 546.040107 302.434628 
L 549.770053 302.434628 
L 553.5 302.434628 
L 557.229947 302.434628 
L 560.959893 302.434628 
L 564.68984 302.434628 
L 568.419786 302.434628 
L 572.149733 302.434628 
L 575.879679 302.434628 
L 579.609626 302.434628 
L 583.339572 302.434628 
L 587.069519 302.434628 
L 590.799465 302.434628 
L 594.529412 302.434628 
L 598.259358 302.434628 
L 601.989305 302.434628 
L 605.719251 302.434628 
L 609.449198 302.434628 
L 613.179144 302.434628 
L 616.909091 302.434628 
L 620.639037 302.434628 
L 624.368984 302.434628 
L 628.09893 302.434628 
L 631.828877 302.434628 
L 635.558824 302.434628 
L 639.28877 302.434628 
L 643.018717 302.434628 
L 646.748663 302.434628 
L 650.47861 302.434628 
L 654.208556 302.434628 
L 657.938503 302.434628 
L 661.668449 302.434628 
L 665.398396 302.434628 
L 669.128342 302.434628 
L 672.858289 302.434628 
L 676.588235 302.434628 
L 680.318182 302.434628 
L 684.048128 302.434628 
L 687.778075 302.434628 
L 691.508021 302.434628 
L 695.237968 302.434628 
L 698.967914 302.434628 
L 702.697861 302.434628 
L 706.427807 302.434628 
L 710.157754 302.434628 
L 713.887701 302.434628 
L 717.617647 302.434628 
L 721.347594 302.434628 
L 725.07754 302.434628 
L 728.807487 302.434628 
L 732.537433 302.434628 
L 736.26738 302.434628 
L 739.997326 302.434628 
L 743.727273 302.434628 
L 747.457219 302.434628 
L 751.187166 302.434628 
L 754.917112 302.434628 
L 758.647059 302.434628 
L 762.377005 302.434628 
L 766.106952 302.434628 
L 769.836898 302.434628 
L 773.566845 302.434628 
L 777.296791 302.434628 
L 781.026738 302.434628 
L 784.756684 302.434628 
L 788.486631 302.434628 
L 792.216578 302.434628 
L 795.946524 302.434628 
L 799.676471 302.434628 
L 803.406417 302.434628 
L 807.136364 302.434628 
L 810.86631 302.434628 
L 814.596257 302.434628 
L 818.326203 302.434628 
L 822.05615 302.434628 
L 825.786096 302.434628 
L 829.516043 302.434628 
L 833.245989 302.434628 
L 836.975936 302.434628 
L 840.705882 302.434628 
L 844.435829 302.434628 
L 848.165775 302.434628 
L 851.895722 302.434628 
L 855.625668 302.434628 
L 859.355615 302.434628 
L 863.085561 302.434628 
L 866.815508 302.434628 
L 870.545455 302.434628 
L 874.275401 302.434628 
L 878.005348 302.434628 
L 881.735294 302.434628 
L 885.465241 302.434628 
L 889.195187 302.434628 
L 892.925134 302.434628 
L 896.65508 302.434628 
L 900.385027 302.434628 
L 904.114973 302.434628 
L 907.84492 302.434628 
L 911.574866 302.434628 
L 915.304813 302.434628 
L 919.034759 302.434628 
L 922.764706 302.434628 
L 926.494652 302.434628 
L 930.224599 302.434628 
L 933.954545 302.434628 
L 933.954545 185.443111 
L 933.954545 185.443111 
L 930.224599 197.350075 
L 926.494652 205.102123 
L 922.764706 208.699256 
L 919.034759 208.141472 
L 915.304813 203.428773 
L 911.574866 194.561158 
L 907.84492 186.017018 
L 904.114973 182.274743 
L 900.385027 183.334334 
L 896.65508 189.195791 
L 892.925134 196.200861 
L 889.195187 200.691292 
L 885.465241 202.667083 
L 881.735294 202.128235 
L 878.005348 199.903636 
L 874.275401 196.822176 
L 870.545455 192.883854 
L 866.815508 188.088671 
L 863.085561 183.919038 
L 859.355615 181.857369 
L 855.625668 181.903663 
L 851.895722 184.057921 
L 848.165775 187.487775 
L 844.435829 191.360861 
L 840.705882 195.677178 
L 836.975936 200.436727 
L 833.245989 205.740512 
L 829.516043 211.689539 
L 825.786096 218.283809 
L 822.05615 225.52332 
L 818.326203 232.385864 
L 814.596257 237.849228 
L 810.86631 241.913413 
L 807.136364 244.57842 
L 803.406417 246.224186 
L 799.676471 247.23065 
L 795.946524 247.597813 
L 792.216578 247.325675 
L 788.486631 244.969562 
L 784.756684 239.084806 
L 781.026738 229.671404 
L 777.296791 216.729357 
L 773.566845 205.455994 
L 769.836898 201.048643 
L 766.106952 203.507305 
L 762.377005 212.83198 
L 758.647059 226.055715 
L 754.917112 240.211561 
L 751.187166 255.299517 
L 747.457219 271.319584 
L 743.727273 285.421301 
L 739.997326 294.754211 
L 736.26738 299.318314 
L 732.537433 299.113609 
L 728.807487 296.588245 
L 725.07754 294.190372 
L 721.347594 291.91999 
L 717.617647 289.777099 
L 713.887701 288.120474 
L 710.157754 287.308891 
L 706.427807 287.342349 
L 702.697861 288.220849 
L 698.967914 289.554141 
L 695.237968 290.951976 
L 691.508021 292.414353 
L 687.778075 293.941273 
L 684.048128 294.547069 
L 680.318182 293.246073 
L 676.588235 290.038286 
L 672.858289 284.923707 
L 669.128342 279.959256 
L 665.398396 277.201852 
L 661.668449 276.651495 
L 657.938503 278.308185 
L 654.208556 280.674666 
L 650.47861 282.253682 
L 646.748663 283.045233 
L 643.018717 283.04932 
L 639.28877 283.123388 
L 635.558824 284.124885 
L 631.828877 286.05381 
L 628.09893 288.910163 
L 624.368984 291.818978 
L 620.639037 293.905285 
L 616.909091 295.169086 
L 613.179144 295.610381 
L 609.449198 295.752441 
L 605.719251 296.11854 
L 601.989305 296.708677 
L 598.259358 297.522853 
L 594.529412 296.080285 
L 590.799465 289.900192 
L 587.069519 278.982573 
L 583.339572 263.327429 
L 579.609626 249.526984 
L 575.879679 244.173466 
L 572.149733 247.266872 
L 568.419786 258.807205 
L 564.68984 272.772493 
L 560.959893 283.140767 
L 557.229947 289.912027 
L 553.5 293.086273 
L 549.770053 293.977547 
L 546.040107 293.899893 
L 542.31016 292.85331 
L 538.580214 290.837799 
L 534.850267 289.049821 
L 531.120321 288.685839 
L 527.390374 289.745853 
L 523.660428 292.229863 
L 519.930481 295.033712 
L 516.200535 297.053244 
L 512.470588 298.288457 
L 508.740642 298.739354 
L 505.010695 298.760766 
L 501.280749 298.70753 
L 497.550802 298.579644 
L 493.820856 298.377108 
L 490.090909 297.727527 
L 486.360963 296.258503 
L 482.631016 293.970036 
L 478.90107 290.862127 
L 475.171123 288.145363 
L 471.441176 287.030335 
L 467.71123 287.517043 
L 463.981283 289.605485 
L 460.251337 292.376764 
L 456.52139 294.91198 
L 452.791444 297.211134 
L 449.061497 299.274225 
L 445.331551 299.771499 
L 441.601604 297.373201 
L 437.871658 292.079331 
L 434.141711 283.88989 
L 430.411765 276.752838 
L 426.681818 274.616135 
L 422.951872 277.479783 
L 419.221925 285.34378 
L 415.491979 294.149216 
L 411.762032 299.837178 
L 408.032086 302.407668 
L 404.302139 301.860684 
L 400.572193 299.455095 
L 396.842246 296.44977 
L 393.112299 292.844709 
L 389.382353 288.639912 
L 385.652406 285.45058 
L 381.92246 284.891915 
L 378.192513 286.963916 
L 374.462567 291.666584 
L 370.73262 296.443206 
L 367.002674 298.737066 
L 363.272727 298.548164 
L 359.542781 295.876502 
L 355.812834 292.709812 
L 352.082888 291.035825 
L 348.352941 290.854543 
L 344.622995 292.165965 
L 340.893048 293.988693 
L 337.163102 295.341329 
L 333.433155 296.223874 
L 329.703209 296.636327 
L 325.973262 297.001348 
L 322.243316 297.741596 
L 318.513369 298.85707 
L 314.783422 300.347772 
L 311.053476 301.708643 
L 307.323529 302.434628 
L 303.593583 302.525726 
L 299.863636 301.981938 
L 296.13369 301.114992 
L 292.403743 300.236619 
L 288.673797 299.346817 
L 284.94385 298.445588 
L 281.213904 297.828704 
L 277.483957 297.791939 
L 273.754011 298.335293 
L 270.024064 299.458767 
L 266.294118 300.279427 
L 262.564171 299.914343 
L 258.834225 298.363512 
L 255.104278 295.626937 
L 251.374332 293.247336 
L 247.644385 292.767429 
L 243.914439 294.187216 
L 240.184492 297.506697 
L 236.454545 300.429588 
L 232.724599 300.659605 
L 228.994652 298.196749 
L 225.264706 293.041019 
L 221.534759 288.157233 
L 217.804813 286.510211 
L 214.074866 288.099951 
L 210.34492 292.926455 
L 206.614973 298.302935 
L 202.885027 301.542601 
L 199.15508 302.645455 
L 195.425134 301.611495 
L 191.695187 299.862344 
L 187.965241 298.819621 
L 184.235294 298.483326 
L 180.505348 298.853461 
L 176.775401 299.930024 
L 173.045455 301.713015 
z
" style="fill:#1f77b4;"/>
   </g>
   <g id="PolyCollection_2">
    <path clip-path="url(#pab9ad7d2c2)" d="M 173.045455 300.26979 
L 173.045455 301.713015 
L 176.775401 299.930024 
L 180.505348 298.853461 
L 184.235294 298.483326 
L 187.965241 298.819621 
L 191.695187 299.862344 
L 195.425134 301.611495 
L 199.15508 302.645455 
L 202.885027 301.542601 
L 206.614973 298.302935 
L 210.34492 292.926455 
L 214.074866 288.099951 
L 217.804813 286.510211 
L 221.534759 288.157233 
L 225.264706 293.041019 
L 228.994652 298.196749 
L 232.724599 300.659605 
L 236.454545 300.429588 
L 240.184492 297.506697 
L 243.914439 294.187216 
L 247.644385 292.767429 
L 251.374332 293.247336 
L 255.104278 295.626937 
L 258.834225 298.363512 
L 262.564171 299.914343 
L 266.294118 300.279427 
L 270.024064 299.458767 
L 273.754011 298.335293 
L 277.483957 297.791939 
L 281.213904 297.828704 
L 284.94385 298.445588 
L 288.673797 299.346817 
L 292.403743 300.236619 
L 296.13369 301.114992 
L 299.863636 301.981938 
L 303.593583 302.525726 
L 307.323529 302.434628 
L 311.053476 301.708643 
L 314.783422 300.347772 
L 318.513369 298.85707 
L 322.243316 297.741596 
L 325.973262 297.001348 
L 329.703209 296.636327 
L 333.433155 296.223874 
L 337.163102 295.341329 
L 340.893048 293.988693 
L 344.622995 292.165965 
L 348.352941 290.854543 
L 352.082888 291.035825 
L 355.812834 292.709812 
L 359.542781 295.876502 
L 363.272727 298.548164 
L 367.002674 298.737066 
L 370.73262 296.443206 
L 374.462567 291.666584 
L 378.192513 286.963916 
L 381.92246 284.891915 
L 385.652406 285.45058 
L 389.382353 288.639912 
L 393.112299 292.844709 
L 396.842246 296.44977 
L 400.572193 299.455095 
L 404.302139 301.860684 
L 408.032086 302.407668 
L 411.762032 299.837178 
L 415.491979 294.149216 
L 419.221925 285.34378 
L 422.951872 277.479783 
L 426.681818 274.616135 
L 430.411765 276.752838 
L 434.141711 283.88989 
L 437.871658 292.079331 
L 441.601604 297.373201 
L 445.331551 299.771499 
L 449.061497 299.274225 
L 452.791444 297.211134 
L 456.52139 294.91198 
L 460.251337 292.376764 
L 463.981283 289.605485 
L 467.71123 287.517043 
L 471.441176 287.030335 
L 475.171123 288.145363 
L 478.90107 290.862127 
L 482.631016 293.970036 
L 486.360963 296.258503 
L 490.090909 297.727527 
L 493.820856 298.377108 
L 497.550802 298.579644 
L 501.280749 298.70753 
L 505.010695 298.760766 
L 508.740642 298.739354 
L 512.470588 298.288457 
L 516.200535 297.053244 
L 519.930481 295.033712 
L 523.660428 292.229863 
L 527.390374 289.745853 
L 531.120321 288.685839 
L 534.850267 289.049821 
L 538.580214 290.837799 
L 542.31016 292.85331 
L 546.040107 293.899893 
L 549.770053 293.977547 
L 553.5 293.086273 
L 557.229947 289.912027 
L 560.959893 283.140767 
L 564.68984 272.772493 
L 568.419786 258.807205 
L 572.149733 247.266872 
L 575.879679 244.173466 
L 579.609626 249.526984 
L 583.339572 263.327429 
L 587.069519 278.982573 
L 590.799465 289.900192 
L 594.529412 296.080285 
L 598.259358 297.522853 
L 601.989305 296.708677 
L 605.719251 296.11854 
L 609.449198 295.752441 
L 613.179144 295.610381 
L 616.909091 295.169086 
L 620.639037 293.905285 
L 624.368984 291.818978 
L 628.09893 288.910163 
L 631.828877 286.05381 
L 635.558824 284.124885 
L 639.28877 283.123388 
L 643.018717 283.04932 
L 646.748663 283.045233 
L 650.47861 282.253682 
L 654.208556 280.674666 
L 657.938503 278.308185 
L 661.668449 276.651495 
L 665.398396 277.201852 
L 669.128342 279.959256 
L 672.858289 284.923707 
L 676.588235 290.038286 
L 680.318182 293.246073 
L 684.048128 294.547069 
L 687.778075 293.941273 
L 691.508021 292.414353 
L 695.237968 290.951976 
L 698.967914 289.554141 
L 702.697861 288.220849 
L 706.427807 287.342349 
L 710.157754 287.308891 
L 713.887701 288.120474 
L 717.617647 289.777099 
L 721.347594 291.91999 
L 725.07754 294.190372 
L 728.807487 296.588245 
L 732.537433 299.113609 
L 736.26738 299.318314 
L 739.997326 294.754211 
L 743.727273 285.421301 
L 747.457219 271.319584 
L 751.187166 255.299517 
L 754.917112 240.211561 
L 758.647059 226.055715 
L 762.377005 212.83198 
L 766.106952 203.507305 
L 769.836898 201.048643 
L 773.566845 205.455994 
L 777.296791 216.729357 
L 781.026738 229.671404 
L 784.756684 239.084806 
L 788.486631 244.969562 
L 792.216578 247.325675 
L 795.946524 247.597813 
L 799.676471 247.23065 
L 803.406417 246.224186 
L 807.136364 244.57842 
L 810.86631 241.913413 
L 814.596257 237.849228 
L 818.326203 232.385864 
L 822.05615 225.52332 
L 825.786096 218.283809 
L 829.516043 211.689539 
L 833.245989 205.740512 
L 836.975936 200.436727 
L 840.705882 195.677178 
L 844.435829 191.360861 
L 848.165775 187.487775 
L 851.895722 184.057921 
L 855.625668 181.903663 
L 859.355615 181.857369 
L 863.085561 183.919038 
L 866.815508 188.088671 
L 870.545455 192.883854 
L 874.275401 196.822176 
L 878.005348 199.903636 
L 881.735294 202.128235 
L 885.465241 202.667083 
L 889.195187 200.691292 
L 892.925134 196.200861 
L 896.65508 189.195791 
L 900.385027 183.334334 
L 904.114973 182.274743 
L 907.84492 186.017018 
L 911.574866 194.561158 
L 915.304813 203.428773 
L 919.034759 208.141472 
L 922.764706 208.699256 
L 926.494652 205.102123 
L 930.224599 197.350075 
L 933.954545 185.443111 
L 933.954545 159.73288 
L 933.954545 159.73288 
L 930.224599 174.614862 
L 926.494652 184.399468 
L 922.764706 189.0867 
L 919.034759 188.676557 
L 915.304813 183.169039 
L 911.574866 172.564146 
L 907.84492 162.575011 
L 904.114973 158.914766 
L 900.385027 161.583411 
L 896.65508 170.580946 
L 892.925134 180.988055 
L 889.195187 187.885422 
L 885.465241 191.273048 
L 881.735294 191.150931 
L 878.005348 188.735324 
L 874.275401 185.242475 
L 870.545455 180.672385 
L 866.815508 175.025054 
L 863.085561 170.563459 
L 859.355615 169.550577 
L 855.625668 171.986408 
L 851.895722 177.870953 
L 848.165775 185.04788 
L 844.435829 191.360861 
L 840.705882 196.809895 
L 836.975936 201.394982 
L 833.245989 206.045178 
L 829.516043 211.689539 
L 825.786096 218.328066 
L 822.05615 225.960759 
L 818.326203 232.997764 
L 814.596257 237.849228 
L 810.86631 240.515152 
L 807.136364 240.995536 
L 803.406417 240.592002 
L 799.676471 240.606173 
L 795.946524 241.03805 
L 792.216578 241.887633 
L 788.486631 240.456346 
L 784.756684 234.045615 
L 781.026738 222.655439 
L 777.296791 206.285819 
L 773.566845 191.78858 
L 769.836898 186.015549 
L 766.106952 188.966726 
L 762.377005 200.642111 
L 758.647059 216.843187 
L 754.917112 233.371437 
L 751.187166 250.226861 
L 747.457219 267.409459 
L 743.727273 280.909329 
L 739.997326 286.716566 
L 736.26738 284.831172 
L 732.537433 275.253145 
L 728.807487 263.921222 
L 725.07754 256.774136 
L 721.347594 253.811889 
L 717.617647 255.034479 
L 713.887701 257.757931 
L 710.157754 259.298267 
L 706.427807 259.655487 
L 702.697861 258.829591 
L 698.967914 258.626421 
L 695.237968 260.85182 
L 691.508021 265.505788 
L 687.778075 272.588325 
L 684.048128 278.710703 
L 680.318182 280.484192 
L 676.588235 277.908793 
L 672.858289 270.984505 
L 669.128342 263.222651 
L 665.398396 258.13455 
L 661.668449 255.720203 
L 657.938503 255.97961 
L 654.208556 257.685046 
L 650.47861 259.608784 
L 646.748663 261.750825 
L 643.018717 264.111169 
L 639.28877 265.802025 
L 635.558824 265.935601 
L 631.828877 264.511897 
L 628.09893 261.530913 
L 624.368984 257.719948 
L 620.639037 253.806299 
L 616.909091 249.789968 
L 613.179144 245.670954 
L 609.449198 242.973364 
L 605.719251 243.221304 
L 601.989305 246.414775 
L 598.259358 252.553776 
L 594.529412 257.50067 
L 590.799465 257.117821 
L 587.069519 251.405229 
L 583.339572 240.362893 
L 579.609626 229.665223 
L 575.879679 224.986626 
L 572.149733 226.327103 
L 568.419786 233.686653 
L 564.68984 243.024572 
L 560.959893 250.300152 
L 557.229947 255.513394 
L 553.5 258.664298 
L 549.770053 260.607954 
L 546.040107 262.199451 
L 542.31016 263.438788 
L 538.580214 264.325967 
L 534.850267 263.53798 
L 531.120321 259.751822 
L 527.390374 252.967493 
L 523.660428 243.184993 
L 519.930481 235.30581 
L 516.200535 234.231434 
L 512.470588 239.961866 
L 508.740642 252.497104 
L 505.010695 265.49611 
L 501.280749 272.617844 
L 497.550802 273.862306 
L 493.820856 269.229496 
L 490.090909 263.400047 
L 486.360963 261.054591 
L 482.631016 262.19313 
L 478.90107 266.815662 
L 475.171123 271.734612 
L 471.441176 273.762405 
L 467.71123 272.89904 
L 463.981283 269.144519 
L 460.251337 265.432342 
L 456.52139 264.696014 
L 452.791444 266.935534 
L 449.061497 272.150901 
L 445.331551 277.063034 
L 441.601604 278.392849 
L 437.871658 276.140347 
L 434.141711 270.305528 
L 430.411765 264.717012 
L 426.681818 263.20342 
L 422.951872 265.764753 
L 419.221925 272.40101 
L 415.491979 278.701719 
L 411.762032 280.256406 
L 408.032086 277.065072 
L 404.302139 269.127716 
L 400.572193 260.044552 
L 396.842246 253.415793 
L 393.112299 249.24144 
L 389.382353 247.521492 
L 385.652406 247.018882 
L 381.92246 246.496543 
L 378.192513 245.954475 
L 374.462567 245.392677 
L 370.73262 245.765587 
L 367.002674 248.027642 
L 363.272727 252.178842 
L 359.542781 258.219186 
L 355.812834 263.911078 
L 352.082888 267.01692 
L 348.352941 267.536712 
L 344.622995 265.470454 
L 340.893048 263.625526 
L 337.163102 264.809306 
L 333.433155 269.021794 
L 329.703209 276.262991 
L 325.973262 283.0653 
L 322.243316 285.961129 
L 318.513369 284.950476 
L 314.783422 280.033341 
L 311.053476 274.933823 
L 307.323529 273.37602 
L 303.593583 275.359933 
L 299.863636 280.88556 
L 296.13369 286.532473 
L 292.403743 288.88024 
L 288.673797 287.928863 
L 284.94385 283.67834 
L 281.213904 279.199477 
L 277.483957 277.56308 
L 273.754011 278.769148 
L 270.024064 282.817681 
L 266.294118 287.411457 
L 262.564171 290.25325 
L 258.834225 291.343061 
L 255.104278 290.68089 
L 251.374332 289.847553 
L 247.644385 290.423866 
L 243.914439 292.409828 
L 240.184492 295.805441 
L 236.454545 298.514506 
L 232.724599 298.440827 
L 228.994652 295.584404 
L 225.264706 289.945236 
L 221.534759 284.642286 
L 217.804813 282.794513 
L 214.074866 284.401919 
L 210.34492 289.464504 
L 206.614973 294.987089 
L 202.885027 297.974495 
L 199.15508 298.426722 
L 195.425134 296.343771 
L 191.695187 293.66071 
L 187.965241 292.312609 
L 184.235294 292.299465 
L 180.505348 293.621281 
L 176.775401 296.278056 
L 173.045455 300.26979 
z
" style="fill:#ff7f0e;"/>
   </g>
   <g id="PolyCollection_3">
    <path clip-path="url(#pab9ad7d2c2)" d="M 173.045455 300.26979 
L 173.045455 300.26979 
L 176.775401 296.278056 
L 180.505348 293.621281 
L 184.235294 292.299465 
L 187.965241 292.312609 
L 191.695187 293.66071 
L 195.425134 296.343771 
L 199.15508 298.426722 
L 202.885027 297.974495 
L 206.614973 294.987089 
L 210.34492 289.464504 
L 214.074866 284.401919 
L 217.804813 282.794513 
L 221.534759 284.642286 
L 225.264706 289.945236 
L 228.994652 295.584404 
L 232.724599 298.440827 
L 236.454545 298.514506 
L 240.184492 295.805441 
L 243.914439 292.409828 
L 247.644385 290.423866 
L 251.374332 289.847553 
L 255.104278 290.68089 
L 258.834225 291.343061 
L 262.564171 290.25325 
L 266.294118 287.411457 
L 270.024064 282.817681 
L 273.754011 278.769148 
L 277.483957 277.56308 
L 281.213904 279.199477 
L 284.94385 283.67834 
L 288.673797 287.928863 
L 292.403743 288.88024 
L 296.13369 286.532473 
L 299.863636 280.88556 
L 303.593583 275.359933 
L 307.323529 273.37602 
L 311.053476 274.933823 
L 314.783422 280.033341 
L 318.513369 284.950476 
L 322.243316 285.961129 
L 325.973262 283.0653 
L 329.703209 276.262991 
L 333.433155 269.021794 
L 337.163102 264.809306 
L 340.893048 263.625526 
L 344.622995 265.470454 
L 348.352941 267.536712 
L 352.082888 267.01692 
L 355.812834 263.911078 
L 359.542781 258.219186 
L 363.272727 252.178842 
L 367.002674 248.027642 
L 370.73262 245.765587 
L 374.462567 245.392677 
L 378.192513 245.954475 
L 381.92246 246.496543 
L 385.652406 247.018882 
L 389.382353 247.521492 
L 393.112299 249.24144 
L 396.842246 253.415793 
L 400.572193 260.044552 
L 404.302139 269.127716 
L 408.032086 277.065072 
L 411.762032 280.256406 
L 415.491979 278.701719 
L 419.221925 272.40101 
L 422.951872 265.764753 
L 426.681818 263.20342 
L 430.411765 264.717012 
L 434.141711 270.305528 
L 437.871658 276.140347 
L 441.601604 278.392849 
L 445.331551 277.063034 
L 449.061497 272.150901 
L 452.791444 266.935534 
L 456.52139 264.696014 
L 460.251337 265.432342 
L 463.981283 269.144519 
L 467.71123 272.89904 
L 471.441176 273.762405 
L 475.171123 271.734612 
L 478.90107 266.815662 
L 482.631016 262.19313 
L 486.360963 261.054591 
L 490.090909 263.400047 
L 493.820856 269.229496 
L 497.550802 273.862306 
L 501.280749 272.617844 
L 505.010695 265.49611 
L 508.740642 252.497104 
L 512.470588 239.961866 
L 516.200535 234.231434 
L 519.930481 235.30581 
L 523.660428 243.184993 
L 527.390374 252.967493 
L 531.120321 259.751822 
L 534.850267 263.53798 
L 538.580214 264.325967 
L 542.31016 263.438788 
L 546.040107 262.199451 
L 549.770053 260.607954 
L 553.5 258.664298 
L 557.229947 255.513394 
L 560.959893 250.300152 
L 564.68984 243.024572 
L 568.419786 233.686653 
L 572.149733 226.327103 
L 575.879679 224.986626 
L 579.609626 229.665223 
L 583.339572 240.362893 
L 587.069519 251.405229 
L 590.799465 257.117821 
L 594.529412 257.50067 
L 598.259358 252.553776 
L 601.989305 246.414775 
L 605.719251 243.221304 
L 609.449198 242.973364 
L 613.179144 245.670954 
L 616.909091 249.789968 
L 620.639037 253.806299 
L 624.368984 257.719948 
L 628.09893 261.530913 
L 631.828877 264.511897 
L 635.558824 265.935601 
L 639.28877 265.802025 
L 643.018717 264.111169 
L 646.748663 261.750825 
L 650.47861 259.608784 
L 654.208556 257.685046 
L 657.938503 255.97961 
L 661.668449 255.720203 
L 665.398396 258.13455 
L 669.128342 263.222651 
L 672.858289 270.984505 
L 676.588235 277.908793 
L 680.318182 280.484192 
L 684.048128 278.710703 
L 687.778075 272.588325 
L 691.508021 265.505788 
L 695.237968 260.85182 
L 698.967914 258.626421 
L 702.697861 258.829591 
L 706.427807 259.655487 
L 710.157754 259.298267 
L 713.887701 257.757931 
L 717.617647 255.034479 
L 721.347594 253.811889 
L 725.07754 256.774136 
L 728.807487 263.921222 
L 732.537433 275.253145 
L 736.26738 284.831172 
L 739.997326 286.716566 
L 743.727273 280.909329 
L 747.457219 267.409459 
L 751.187166 250.226861 
L 754.917112 233.371437 
L 758.647059 216.843187 
L 762.377005 200.642111 
L 766.106952 188.966726 
L 769.836898 186.015549 
L 773.566845 191.78858 
L 777.296791 206.285819 
L 781.026738 222.655439 
L 784.756684 234.045615 
L 788.486631 240.456346 
L 792.216578 241.887633 
L 795.946524 241.03805 
L 799.676471 240.606173 
L 803.406417 240.592002 
L 807.136364 240.995536 
L 810.86631 240.515152 
L 814.596257 237.849228 
L 818.326203 232.997764 
L 822.05615 225.960759 
L 825.786096 218.328066 
L 829.516043 211.689539 
L 833.245989 206.045178 
L 836.975936 201.394982 
L 840.705882 196.809895 
L 844.435829 191.360861 
L 848.165775 185.04788 
L 851.895722 177.870953 
L 855.625668 171.986408 
L 859.355615 169.550577 
L 863.085561 170.563459 
L 866.815508 175.025054 
L 870.545455 180.672385 
L 874.275401 185.242475 
L 878.005348 188.735324 
L 881.735294 191.150931 
L 885.465241 191.273048 
L 889.195187 187.885422 
L 892.925134 180.988055 
L 896.65508 170.580946 
L 900.385027 161.583411 
L 904.114973 158.914766 
L 907.84492 162.575011 
L 911.574866 172.564146 
L 915.304813 183.169039 
L 919.034759 188.676557 
L 922.764706 189.0867 
L 926.494652 184.399468 
L 930.224599 174.614862 
L 933.954545 159.73288 
L 933.954545 152.757236 
L 933.954545 152.757236 
L 930.224599 167.025992 
L 926.494652 176.359453 
L 922.764706 180.757618 
L 919.034759 180.220487 
L 915.304813 174.748061 
L 911.574866 164.340339 
L 907.84492 154.786262 
L 904.114973 151.874772 
L 900.385027 155.605869 
L 896.65508 165.979552 
L 892.925134 176.579641 
L 889.195187 180.989954 
L 885.465241 179.210492 
L 881.735294 171.241255 
L 878.005348 161.501323 
L 874.275401 154.409777 
L 870.545455 149.966618 
L 866.815508 148.171844 
L 863.085561 147.823761 
L 859.355615 147.720672 
L 855.625668 147.862579 
L 851.895722 148.249479 
L 848.165775 150.064932 
L 844.435829 154.492494 
L 840.705882 161.532166 
L 836.975936 171.183947 
L 833.245989 181.783982 
L 829.516043 191.668416 
L 825.786096 200.83725 
L 822.05615 209.290482 
L 818.326203 215.239291 
L 814.596257 216.894854 
L 810.86631 214.257171 
L 807.136364 207.326241 
L 803.406417 200.894712 
L 799.676471 199.75523 
L 795.946524 203.907795 
L 792.216578 213.352406 
L 788.486631 221.511518 
L 784.756684 221.807581 
L 781.026738 214.240597 
L 777.296791 198.810566 
L 773.566845 183.571188 
L 769.836898 176.576164 
L 766.106952 177.825496 
L 762.377005 187.319182 
L 758.647059 201.337519 
L 754.917112 216.160802 
L 751.187166 231.78903 
L 747.457219 248.222204 
L 743.727273 260.771227 
L 739.997326 264.747003 
L 736.26738 260.149532 
L 732.537433 246.978814 
L 728.807487 232.296175 
L 725.07754 223.162941 
L 721.347594 219.579113 
L 717.617647 221.544691 
L 713.887701 225.743672 
L 710.157754 228.860056 
L 706.427807 230.893842 
L 702.697861 231.84503 
L 698.967914 233.78331 
L 695.237968 238.778373 
L 691.508021 246.830218 
L 687.778075 257.938845 
L 684.048128 267.826266 
L 680.318182 272.214492 
L 676.588235 271.103524 
L 672.858289 264.493362 
L 669.128342 256.596779 
L 665.398396 251.626549 
L 661.668449 249.582674 
L 657.938503 250.465152 
L 654.208556 252.25192 
L 650.47861 252.920912 
L 646.748663 252.47213 
L 643.018717 250.905573 
L 639.28877 248.812119 
L 635.558824 246.782647 
L 631.828877 244.817157 
L 628.09893 242.915648 
L 624.368984 240.826578 
L 620.639037 238.298404 
L 616.909091 235.331126 
L 613.179144 231.924743 
L 609.449198 229.383116 
L 605.719251 229.010106 
L 601.989305 230.805714 
L 598.259358 234.769939 
L 594.529412 238.084344 
L 590.799465 237.930493 
L 587.069519 234.308384 
L 583.339572 227.218019 
L 579.609626 220.401999 
L 575.879679 217.602927 
L 572.149733 218.820801 
L 568.419786 224.055624 
L 564.68984 230.646461 
L 560.959893 235.932383 
L 557.229947 239.913388 
L 553.5 242.589478 
L 549.770053 245.074652 
L 546.040107 248.482913 
L 542.31016 252.814261 
L 538.580214 258.068695 
L 534.850267 260.193183 
L 531.120321 255.134692 
L 527.390374 242.893221 
L 523.660428 223.46877 
L 519.930481 206.637883 
L 516.200535 202.177103 
L 512.470588 210.086431 
L 508.740642 230.365865 
L 505.010695 251.751342 
L 501.280749 262.978797 
L 497.550802 264.04823 
L 493.820856 254.959642 
L 490.090909 244.4278 
L 486.360963 241.167469 
L 482.631016 245.178652 
L 478.90107 256.461347 
L 475.171123 267.767966 
L 471.441176 271.850923 
L 467.71123 268.710218 
L 463.981283 258.345849 
L 460.251337 247.428682 
L 456.52139 242.629582 
L 452.791444 243.948548 
L 449.061497 251.38558 
L 445.331551 260.222039 
L 441.601604 265.739282 
L 437.871658 267.93731 
L 434.141711 266.816124 
L 430.411765 264.255066 
L 426.681818 262.133478 
L 422.951872 260.451361 
L 419.221925 259.208715 
L 415.491979 257.615412 
L 411.762032 254.881324 
L 408.032086 251.006452 
L 404.302139 245.990796 
L 400.572193 240.636626 
L 396.842246 235.746213 
L 393.112299 231.319558 
L 389.382353 227.356661 
L 385.652406 223.614856 
L 381.92246 219.851479 
L 378.192513 216.066529 
L 374.462567 212.260007 
L 370.73262 210.392702 
L 367.002674 212.425401 
L 363.272727 218.358106 
L 359.542781 228.190815 
L 355.812834 237.885746 
L 352.082888 243.405115 
L 348.352941 244.74892 
L 344.622995 241.917163 
L 340.893048 238.626838 
L 337.163102 238.594942 
L 333.433155 241.821475 
L 329.703209 248.306435 
L 325.973262 252.295357 
L 322.243316 248.033771 
L 318.513369 235.521678 
L 314.783422 214.759079 
L 311.053476 196.197024 
L 307.323529 190.286565 
L 303.593583 197.027703 
L 299.863636 216.420436 
L 296.13369 238.87737 
L 292.403743 254.811105 
L 288.673797 264.221642 
L 284.94385 267.108981 
L 281.213904 267.379842 
L 277.483957 268.940943 
L 273.754011 271.792285 
L 270.024064 275.933868 
L 266.294118 280.121863 
L 262.564171 283.112442 
L 258.834225 284.905606 
L 255.104278 285.501353 
L 251.374332 285.851665 
L 247.644385 286.908521 
L 243.914439 288.67192 
L 240.184492 291.141863 
L 236.454545 292.714128 
L 232.724599 291.784494 
L 228.994652 288.35296 
L 225.264706 282.419526 
L 221.534759 276.665122 
L 217.804813 273.770677 
L 214.074866 273.73619 
L 210.34492 276.561662 
L 206.614973 280.362986 
L 202.885027 283.256055 
L 199.15508 285.24087 
L 195.425134 286.31743 
L 191.695187 287.223689 
L 187.965241 288.697602 
L 184.235294 290.739168 
L 180.505348 293.348388 
L 176.775401 296.525262 
L 173.045455 300.26979 
z
" style="fill:#2ca02c;"/>
   </g>
   <g id="PolyCollection_4">
    <path clip-path="url(#pab9ad7d2c2)" d="M 173.045455 300.26979 
L 173.045455 300.26979 
L 176.775401 296.525262 
L 180.505348 293.348388 
L 184.235294 290.739168 
L 187.965241 288.697602 
L 191.695187 287.223689 
L 195.425134 286.31743 
L 199.15508 285.24087 
L 202.885027 283.256055 
L 206.614973 280.362986 
L 210.34492 276.561662 
L 214.074866 273.73619 
L 217.804813 273.770677 
L 221.534759 276.665122 
L 225.264706 282.419526 
L 228.994652 288.35296 
L 232.724599 291.784494 
L 236.454545 292.714128 
L 240.184492 291.141863 
L 243.914439 288.67192 
L 247.644385 286.908521 
L 251.374332 285.851665 
L 255.104278 285.501353 
L 258.834225 284.905606 
L 262.564171 283.112442 
L 266.294118 280.121863 
L 270.024064 275.933868 
L 273.754011 271.792285 
L 277.483957 268.940943 
L 281.213904 267.379842 
L 284.94385 267.108981 
L 288.673797 264.221642 
L 292.403743 254.811105 
L 296.13369 238.87737 
L 299.863636 216.420436 
L 303.593583 197.027703 
L 307.323529 190.286565 
L 311.053476 196.197024 
L 314.783422 214.759079 
L 318.513369 235.521678 
L 322.243316 248.033771 
L 325.973262 252.295357 
L 329.703209 248.306435 
L 333.433155 241.821475 
L 337.163102 238.594942 
L 340.893048 238.626838 
L 344.622995 241.917163 
L 348.352941 244.74892 
L 352.082888 243.405115 
L 355.812834 237.885746 
L 359.542781 228.190815 
L 363.272727 218.358106 
L 367.002674 212.425401 
L 370.73262 210.392702 
L 374.462567 212.260007 
L 378.192513 216.066529 
L 381.92246 219.851479 
L 385.652406 223.614856 
L 389.382353 227.356661 
L 393.112299 231.319558 
L 396.842246 235.746213 
L 400.572193 240.636626 
L 404.302139 245.990796 
L 408.032086 251.006452 
L 411.762032 254.881324 
L 415.491979 257.615412 
L 419.221925 259.208715 
L 422.951872 260.451361 
L 426.681818 262.133478 
L 430.411765 264.255066 
L 434.141711 266.816124 
L 437.871658 267.93731 
L 441.601604 265.739282 
L 445.331551 260.222039 
L 449.061497 251.38558 
L 452.791444 243.948548 
L 456.52139 242.629582 
L 460.251337 247.428682 
L 463.981283 258.345849 
L 467.71123 268.710218 
L 471.441176 271.850923 
L 475.171123 267.767966 
L 478.90107 256.461347 
L 482.631016 245.178652 
L 486.360963 241.167469 
L 490.090909 244.4278 
L 493.820856 254.959642 
L 497.550802 264.04823 
L 501.280749 262.978797 
L 505.010695 251.751342 
L 508.740642 230.365865 
L 512.470588 210.086431 
L 516.200535 202.177103 
L 519.930481 206.637883 
L 523.660428 223.46877 
L 527.390374 242.893221 
L 531.120321 255.134692 
L 534.850267 260.193183 
L 538.580214 258.068695 
L 542.31016 252.814261 
L 546.040107 248.482913 
L 549.770053 245.074652 
L 553.5 242.589478 
L 557.229947 239.913388 
L 560.959893 235.932383 
L 564.68984 230.646461 
L 568.419786 224.055624 
L 572.149733 218.820801 
L 575.879679 217.602927 
L 579.609626 220.401999 
L 583.339572 227.218019 
L 587.069519 234.308384 
L 590.799465 237.930493 
L 594.529412 238.084344 
L 598.259358 234.769939 
L 601.989305 230.805714 
L 605.719251 229.010106 
L 609.449198 229.383116 
L 613.179144 231.924743 
L 616.909091 235.331126 
L 620.639037 238.298404 
L 624.368984 240.826578 
L 628.09893 242.915648 
L 631.828877 244.817157 
L 635.558824 246.782647 
L 639.28877 248.812119 
L 643.018717 250.905573 
L 646.748663 252.47213 
L 650.47861 252.920912 
L 654.208556 252.25192 
L 657.938503 250.465152 
L 661.668449 249.582674 
L 665.398396 251.626549 
L 669.128342 256.596779 
L 672.858289 264.493362 
L 676.588235 271.103524 
L 680.318182 272.214492 
L 684.048128 267.826266 
L 687.778075 257.938845 
L 691.508021 246.830218 
L 695.237968 238.778373 
L 698.967914 233.78331 
L 702.697861 231.84503 
L 706.427807 230.893842 
L 710.157754 228.860056 
L 713.887701 225.743672 
L 717.617647 221.544691 
L 721.347594 219.579113 
L 725.07754 223.162941 
L 728.807487 232.296175 
L 732.537433 246.978814 
L 736.26738 260.149532 
L 739.997326 264.747003 
L 743.727273 260.771227 
L 747.457219 248.222204 
L 751.187166 231.78903 
L 754.917112 216.160802 
L 758.647059 201.337519 
L 762.377005 187.319182 
L 766.106952 177.825496 
L 769.836898 176.576164 
L 773.566845 183.571188 
L 777.296791 198.810566 
L 781.026738 214.240597 
L 784.756684 221.807581 
L 788.486631 221.511518 
L 792.216578 213.352406 
L 795.946524 203.907795 
L 799.676471 199.75523 
L 803.406417 200.894712 
L 807.136364 207.326241 
L 810.86631 214.257171 
L 814.596257 216.894854 
L 818.326203 215.239291 
L 822.05615 209.290482 
L 825.786096 200.83725 
L 829.516043 191.668416 
L 833.245989 181.783982 
L 836.975936 171.183947 
L 840.705882 161.532166 
L 844.435829 154.492494 
L 848.165775 150.064932 
L 851.895722 148.249479 
L 855.625668 147.862579 
L 859.355615 147.720672 
L 863.085561 147.823761 
L 866.815508 148.171844 
L 870.545455 149.966618 
L 874.275401 154.409777 
L 878.005348 161.501323 
L 881.735294 171.241255 
L 885.465241 179.210492 
L 889.195187 180.989954 
L 892.925134 176.579641 
L 896.65508 165.979552 
L 900.385027 155.605869 
L 904.114973 151.874772 
L 907.84492 154.786262 
L 911.574866 164.340339 
L 915.304813 174.748061 
L 919.034759 180.220487 
L 922.764706 180.757618 
L 926.494652 176.359453 
L 930.224599 167.025992 
L 933.954545 152.757236 
L 933.954545 119.473448 
L 933.954545 119.473448 
L 930.224599 115.735189 
L 926.494652 112.647473 
L 922.764706 110.210299 
L 919.034759 108.423668 
L 915.304813 107.28758 
L 911.574866 106.802035 
L 907.84492 106.110094 
L 904.114973 104.354818 
L 900.385027 101.536207 
L 896.65508 97.65426 
L 892.925134 94.574725 
L 889.195187 94.163345 
L 885.465241 96.420122 
L 881.735294 101.345055 
L 878.005348 106.230797 
L 874.275401 108.370003 
L 870.545455 107.762672 
L 866.815508 104.408804 
L 863.085561 98.368769 
L 859.355615 89.702939 
L 855.625668 78.411314 
L 851.895722 64.493893 
L 848.165775 55.554545 
L 844.435829 59.197139 
L 840.705882 75.421673 
L 836.975936 104.228149 
L 833.245989 134.991454 
L 829.516043 157.086477 
L 825.786096 170.513218 
L 822.05615 175.271677 
L 818.326203 174.479542 
L 814.596257 171.254505 
L 810.86631 165.596564 
L 807.136364 157.505719 
L 803.406417 151.545594 
L 799.676471 152.27981 
L 795.946524 159.708367 
L 792.216578 173.831266 
L 788.486631 186.191724 
L 784.756684 188.332959 
L 781.026738 180.254972 
L 777.296791 161.957761 
L 773.566845 143.508147 
L 769.836898 134.97295 
L 766.106952 136.35217 
L 762.377005 147.645808 
L 758.647059 164.846284 
L 754.917112 183.946023 
L 751.187166 204.945023 
L 747.457219 227.843285 
L 743.727273 244.349188 
L 739.997326 246.171112 
L 736.26738 233.309056 
L 732.537433 205.763021 
L 728.807487 177.924455 
L 725.07754 164.184806 
L 721.347594 164.544075 
L 717.617647 179.00226 
L 713.887701 196.618406 
L 710.157754 206.451557 
L 706.427807 208.501711 
L 702.697861 202.76887 
L 698.967914 196.84208 
L 695.237968 198.310386 
L 691.508021 207.173789 
L 687.778075 223.432288 
L 684.048128 240.041683 
L 680.318182 249.957771 
L 676.588235 253.180554 
L 672.858289 249.71003 
L 669.128342 243.869097 
L 665.398396 239.980653 
L 661.668449 238.044696 
L 657.938503 238.061228 
L 654.208556 238.781938 
L 650.47861 238.958514 
L 646.748663 238.590957 
L 643.018717 237.679266 
L 639.28877 236.0205 
L 635.558824 233.411716 
L 631.828877 229.852914 
L 628.09893 225.344093 
L 624.368984 220.192218 
L 620.639037 214.704249 
L 616.909091 208.880189 
L 613.179144 202.720036 
L 609.449198 197.274652 
L 605.719251 193.594899 
L 601.989305 191.680777 
L 598.259358 191.532286 
L 594.529412 192.121589 
L 590.799465 192.420849 
L 587.069519 192.430066 
L 583.339572 192.149241 
L 579.609626 192.708068 
L 575.879679 195.236245 
L 572.149733 199.733772 
L 568.419786 206.200647 
L 564.68984 213.254279 
L 560.959893 219.512076 
L 557.229947 224.974037 
L 553.5 229.640162 
L 549.770053 232.141384 
L 546.040107 231.108632 
L 542.31016 226.541908 
L 538.580214 218.44121 
L 534.850267 208.701094 
L 531.120321 199.216113 
L 527.390374 189.986266 
L 523.660428 181.011555 
L 519.930481 176.322506 
L 516.200535 179.949648 
L 512.470588 191.892979 
L 508.740642 212.1525 
L 505.010695 232.312619 
L 501.280749 243.957745 
L 497.550802 247.087877 
L 493.820856 241.703015 
L 490.090909 234.617186 
L 486.360963 232.644417 
L 482.631016 235.784708 
L 478.90107 244.03806 
L 475.171123 251.870503 
L 471.441176 253.748069 
L 467.71123 249.670759 
L 463.981283 239.638571 
L 460.251337 229.367923 
L 456.52139 224.575229 
L 452.791444 225.260489 
L 449.061497 231.423702 
L 445.331551 238.158543 
L 441.601604 240.558682 
L 437.871658 238.624121 
L 434.141711 232.35486 
L 430.411765 223.276875 
L 426.681818 212.916146 
L 422.951872 201.272672 
L 419.221925 188.346453 
L 415.491979 177.716486 
L 411.762032 172.961767 
L 408.032086 174.082298 
L 404.302139 181.078077 
L 400.572193 188.739573 
L 396.842246 191.857257 
L 393.112299 190.431127 
L 389.382353 184.461183 
L 385.652406 176.81691 
L 381.92246 170.367788 
L 378.192513 165.113819 
L 374.462567 161.055003 
L 370.73262 158.882169 
L 367.002674 159.286151 
L 363.272727 162.266948 
L 359.542781 167.824559 
L 355.812834 174.164029 
L 352.082888 179.4904 
L 348.352941 183.803674 
L 344.622995 187.103849 
L 340.893048 190.939091 
L 337.163102 196.857563 
L 333.433155 204.859266 
L 329.703209 214.944199 
L 325.973262 221.33327 
L 322.243316 218.247386 
L 318.513369 205.686548 
L 314.783422 183.650755 
L 311.053476 164.289512 
L 307.323529 159.752325 
L 303.593583 170.039194 
L 299.863636 195.150119 
L 296.13369 223.762498 
L 292.403743 244.55373 
L 288.673797 257.523815 
L 284.94385 262.672753 
L 281.213904 264.278647 
L 277.483957 266.619599 
L 273.754011 269.695609 
L 270.024064 273.506678 
L 266.294118 277.157323 
L 262.564171 279.752062 
L 258.834225 281.290894 
L 255.104278 281.77382 
L 251.374332 282.082909 
L 247.644385 283.10023 
L 243.914439 284.825785 
L 240.184492 287.259572 
L 236.454545 288.786304 
L 232.724599 287.790693 
L 228.994652 284.27274 
L 225.264706 278.232443 
L 221.534759 272.537343 
L 217.804813 270.05498 
L 214.074866 270.785352 
L 210.34492 274.72846 
L 206.614973 279.635097 
L 202.885027 283.256055 
L 199.15508 285.591335 
L 195.425134 286.640936 
L 191.695187 287.358483 
L 187.965241 288.697602 
L 184.235294 290.658292 
L 180.505348 293.240553 
L 176.775401 296.444386 
L 173.045455 300.26979 
z
" style="fill:#d62728;"/>
   </g>
   <g id="matplotlib.axis_1">
    <g id="xtick_1">
     <g id="line2d_1">
      <defs>
       <path d="M 0 0 
L 0 3.5 
" id="m729e524ba7" style="stroke:#000000;stroke-width:0.8;"/>
      </defs>
      <g>
       <use style="stroke:#000000;stroke-width:0.8;" x="173.045455" xlink:href="#m729e524ba7" y="315"/>
      </g>
     </g>
     <g id="text_1">
      <!-- 2020-01 -->
      <defs>
       <path d="M 19.1875 8.296875 
L 53.609375 8.296875 
L 53.609375 0 
L 7.328125 0 
L 7.328125 8.296875 
Q 12.9375 14.109375 22.625 23.890625 
Q 32.328125 33.6875 34.8125 36.53125 
Q 39.546875 41.84375 41.421875 45.53125 
Q 43.3125 49.21875 43.3125 52.78125 
Q 43.3125 58.59375 39.234375 62.25 
Q 35.15625 65.921875 28.609375 65.921875 
Q 23.96875 65.921875 18.8125 64.3125 
Q 13.671875 62.703125 7.8125 59.421875 
L 7.8125 69.390625 
Q 13.765625 71.78125 18.9375 73 
Q 24.125 74.21875 28.421875 74.21875 
Q 39.75 74.21875 46.484375 68.546875 
Q 53.21875 62.890625 53.21875 53.421875 
Q 53.21875 48.921875 51.53125 44.890625 
Q 49.859375 40.875 45.40625 35.40625 
Q 44.1875 33.984375 37.640625 27.21875 
Q 31.109375 20.453125 19.1875 8.296875 
z
" id="DejaVuSans-50"/>
       <path d="M 31.78125 66.40625 
Q 24.171875 66.40625 20.328125 58.90625 
Q 16.5 51.421875 16.5 36.375 
Q 16.5 21.390625 20.328125 13.890625 
Q 24.171875 6.390625 31.78125 6.390625 
Q 39.453125 6.390625 43.28125 13.890625 
Q 47.125 21.390625 47.125 36.375 
Q 47.125 51.421875 43.28125 58.90625 
Q 39.453125 66.40625 31.78125 66.40625 
z
M 31.78125 74.21875 
Q 44.046875 74.21875 50.515625 64.515625 
Q 56.984375 54.828125 56.984375 36.375 
Q 56.984375 17.96875 50.515625 8.265625 
Q 44.046875 -1.421875 31.78125 -1.421875 
Q 19.53125 -1.421875 13.0625 8.265625 
Q 6.59375 17.96875 6.59375 36.375 
Q 6.59375 54.828125 13.0625 64.515625 
Q 19.53125 74.21875 31.78125 74.21875 
z
" id="DejaVuSans-48"/>
       <path d="M 4.890625 31.390625 
L 31.203125 31.390625 
L 31.203125 23.390625 
L 4.890625 23.390625 
z
" id="DejaVuSans-45"/>
       <path d="M 12.40625 8.296875 
L 28.515625 8.296875 
L 28.515625 63.921875 
L 10.984375 60.40625 
L 10.984375 69.390625 
L 28.421875 72.90625 
L 38.28125 72.90625 
L 38.28125 8.296875 
L 54.390625 8.296875 
L 54.390625 0 
L 12.40625 0 
z
" id="DejaVuSans-49"/>
      </defs>
      <g transform="translate(152.154048 329.598437)scale(0.1 -0.1)">
       <use xlink:href="#DejaVuSans-50"/>
       <use x="63.623047" xlink:href="#DejaVuSans-48"/>
       <use x="127.246094" xlink:href="#DejaVuSans-50"/>
       <use x="190.869141" xlink:href="#DejaVuSans-48"/>
       <use x="254.492188" xlink:href="#DejaVuSans-45"/>
       <use x="290.576172" xlink:href="#DejaVuSans-48"/>
       <use x="354.199219" xlink:href="#DejaVuSans-49"/>
      </g>
     </g>
    </g>
    <g id="xtick_2">
     <g id="line2d_2">
      <g>
       <use style="stroke:#000000;stroke-width:0.8;" x="284.94385" xlink:href="#m729e524ba7" y="315"/>
      </g>
     </g>
     <g id="text_2">
      <!-- 2020-03 -->
      <defs>
       <path d="M 40.578125 39.3125 
Q 47.65625 37.796875 51.625 33 
Q 55.609375 28.21875 55.609375 21.1875 
Q 55.609375 10.40625 48.1875 4.484375 
Q 40.765625 -1.421875 27.09375 -1.421875 
Q 22.515625 -1.421875 17.65625 -0.515625 
Q 12.796875 0.390625 7.625 2.203125 
L 7.625 11.71875 
Q 11.71875 9.328125 16.59375 8.109375 
Q 21.484375 6.890625 26.8125 6.890625 
Q 36.078125 6.890625 40.9375 10.546875 
Q 45.796875 14.203125 45.796875 21.1875 
Q 45.796875 27.640625 41.28125 31.265625 
Q 36.765625 34.90625 28.71875 34.90625 
L 20.21875 34.90625 
L 20.21875 43.015625 
L 29.109375 43.015625 
Q 36.375 43.015625 40.234375 45.921875 
Q 44.09375 48.828125 44.09375 54.296875 
Q 44.09375 59.90625 40.109375 62.90625 
Q 36.140625 65.921875 28.71875 65.921875 
Q 24.65625 65.921875 20.015625 65.03125 
Q 15.375 64.15625 9.8125 62.3125 
L 9.8125 71.09375 
Q 15.4375 72.65625 20.34375 73.4375 
Q 25.25 74.21875 29.59375 74.21875 
Q 40.828125 74.21875 47.359375 69.109375 
Q 53.90625 64.015625 53.90625 55.328125 
Q 53.90625 49.265625 50.4375 45.09375 
Q 46.96875 40.921875 40.578125 39.3125 
z
" id="DejaVuSans-51"/>
      </defs>
      <g transform="translate(264.052444 329.598437)scale(0.1 -0.1)">
       <use xlink:href="#DejaVuSans-50"/>
       <use x="63.623047" xlink:href="#DejaVuSans-48"/>
       <use x="127.246094" xlink:href="#DejaVuSans-50"/>
       <use x="190.869141" xlink:href="#DejaVuSans-48"/>
       <use x="254.492188" xlink:href="#DejaVuSans-45"/>
       <use x="290.576172" xlink:href="#DejaVuSans-48"/>
       <use x="354.199219" xlink:href="#DejaVuSans-51"/>
      </g>
     </g>
    </g>
    <g id="xtick_3">
     <g id="line2d_3">
      <g>
       <use style="stroke:#000000;stroke-width:0.8;" x="398.707219" xlink:href="#m729e524ba7" y="315"/>
      </g>
     </g>
     <g id="text_3">
      <!-- 2020-05 -->
      <defs>
       <path d="M 10.796875 72.90625 
L 49.515625 72.90625 
L 49.515625 64.59375 
L 19.828125 64.59375 
L 19.828125 46.734375 
Q 21.96875 47.46875 24.109375 47.828125 
Q 26.265625 48.1875 28.421875 48.1875 
Q 40.625 48.1875 47.75 41.5 
Q 54.890625 34.8125 54.890625 23.390625 
Q 54.890625 11.625 47.5625 5.09375 
Q 40.234375 -1.421875 26.90625 -1.421875 
Q 22.3125 -1.421875 17.546875 -0.640625 
Q 12.796875 0.140625 7.71875 1.703125 
L 7.71875 11.625 
Q 12.109375 9.234375 16.796875 8.0625 
Q 21.484375 6.890625 26.703125 6.890625 
Q 35.15625 6.890625 40.078125 11.328125 
Q 45.015625 15.765625 45.015625 23.390625 
Q 45.015625 31 40.078125 35.4375 
Q 35.15625 39.890625 26.703125 39.890625 
Q 22.75 39.890625 18.8125 39.015625 
Q 14.890625 38.140625 10.796875 36.28125 
z
" id="DejaVuSans-53"/>
      </defs>
      <g transform="translate(377.815813 329.598437)scale(0.1 -0.1)">
       <use xlink:href="#DejaVuSans-50"/>
       <use x="63.623047" xlink:href="#DejaVuSans-48"/>
       <use x="127.246094" xlink:href="#DejaVuSans-50"/>
       <use x="190.869141" xlink:href="#DejaVuSans-48"/>
       <use x="254.492188" xlink:href="#DejaVuSans-45"/>
       <use x="290.576172" xlink:href="#DejaVuSans-48"/>
       <use x="354.199219" xlink:href="#DejaVuSans-53"/>
      </g>
     </g>
    </g>
    <g id="xtick_4">
     <g id="line2d_4">
      <g>
       <use style="stroke:#000000;stroke-width:0.8;" x="512.470588" xlink:href="#m729e524ba7" y="315"/>
      </g>
     </g>
     <g id="text_4">
      <!-- 2020-07 -->
      <defs>
       <path d="M 8.203125 72.90625 
L 55.078125 72.90625 
L 55.078125 68.703125 
L 28.609375 0 
L 18.3125 0 
L 43.21875 64.59375 
L 8.203125 64.59375 
z
" id="DejaVuSans-55"/>
      </defs>
      <g transform="translate(491.579182 329.598437)scale(0.1 -0.1)">
       <use xlink:href="#DejaVuSans-50"/>
       <use x="63.623047" xlink:href="#DejaVuSans-48"/>
       <use x="127.246094" xlink:href="#DejaVuSans-50"/>
       <use x="190.869141" xlink:href="#DejaVuSans-48"/>
       <use x="254.492188" xlink:href="#DejaVuSans-45"/>
       <use x="290.576172" xlink:href="#DejaVuSans-48"/>
       <use x="354.199219" xlink:href="#DejaVuSans-55"/>
      </g>
     </g>
    </g>
    <g id="xtick_5">
     <g id="line2d_5">
      <g>
       <use style="stroke:#000000;stroke-width:0.8;" x="628.09893" xlink:href="#m729e524ba7" y="315"/>
      </g>
     </g>
     <g id="text_5">
      <!-- 2020-09 -->
      <defs>
       <path d="M 10.984375 1.515625 
L 10.984375 10.5 
Q 14.703125 8.734375 18.5 7.8125 
Q 22.3125 6.890625 25.984375 6.890625 
Q 35.75 6.890625 40.890625 13.453125 
Q 46.046875 20.015625 46.78125 33.40625 
Q 43.953125 29.203125 39.59375 26.953125 
Q 35.25 24.703125 29.984375 24.703125 
Q 19.046875 24.703125 12.671875 31.3125 
Q 6.296875 37.9375 6.296875 49.421875 
Q 6.296875 60.640625 12.9375 67.421875 
Q 19.578125 74.21875 30.609375 74.21875 
Q 43.265625 74.21875 49.921875 64.515625 
Q 56.59375 54.828125 56.59375 36.375 
Q 56.59375 19.140625 48.40625 8.859375 
Q 40.234375 -1.421875 26.421875 -1.421875 
Q 22.703125 -1.421875 18.890625 -0.6875 
Q 15.09375 0.046875 10.984375 1.515625 
z
M 30.609375 32.421875 
Q 37.25 32.421875 41.125 36.953125 
Q 45.015625 41.5 45.015625 49.421875 
Q 45.015625 57.28125 41.125 61.84375 
Q 37.25 66.40625 30.609375 66.40625 
Q 23.96875 66.40625 20.09375 61.84375 
Q 16.21875 57.28125 16.21875 49.421875 
Q 16.21875 41.5 20.09375 36.953125 
Q 23.96875 32.421875 30.609375 32.421875 
z
" id="DejaVuSans-57"/>
      </defs>
      <g transform="translate(607.207524 329.598437)scale(0.1 -0.1)">
       <use xlink:href="#DejaVuSans-50"/>
       <use x="63.623047" xlink:href="#DejaVuSans-48"/>
       <use x="127.246094" xlink:href="#DejaVuSans-50"/>
       <use x="190.869141" xlink:href="#DejaVuSans-48"/>
       <use x="254.492188" xlink:href="#DejaVuSans-45"/>
       <use x="290.576172" xlink:href="#DejaVuSans-48"/>
       <use x="354.199219" xlink:href="#DejaVuSans-57"/>
      </g>
     </g>
    </g>
    <g id="xtick_6">
     <g id="line2d_6">
      <g>
       <use style="stroke:#000000;stroke-width:0.8;" x="741.862299" xlink:href="#m729e524ba7" y="315"/>
      </g>
     </g>
     <g id="text_6">
      <!-- 2020-11 -->
      <g transform="translate(720.970893 329.598437)scale(0.1 -0.1)">
       <use xlink:href="#DejaVuSans-50"/>
       <use x="63.623047" xlink:href="#DejaVuSans-48"/>
       <use x="127.246094" xlink:href="#DejaVuSans-50"/>
       <use x="190.869141" xlink:href="#DejaVuSans-48"/>
       <use x="254.492188" xlink:href="#DejaVuSans-45"/>
       <use x="290.576172" xlink:href="#DejaVuSans-49"/>
       <use x="354.199219" xlink:href="#DejaVuSans-49"/>
      </g>
     </g>
    </g>
    <g id="xtick_7">
     <g id="line2d_7">
      <g>
       <use style="stroke:#000000;stroke-width:0.8;" x="855.625668" xlink:href="#m729e524ba7" y="315"/>
      </g>
     </g>
     <g id="text_7">
      <!-- 2021-01 -->
      <g transform="translate(834.734262 329.598437)scale(0.1 -0.1)">
       <use xlink:href="#DejaVuSans-50"/>
       <use x="63.623047" xlink:href="#DejaVuSans-48"/>
       <use x="127.246094" xlink:href="#DejaVuSans-50"/>
       <use x="190.869141" xlink:href="#DejaVuSans-49"/>
       <use x="254.492188" xlink:href="#DejaVuSans-45"/>
       <use x="290.576172" xlink:href="#DejaVuSans-48"/>
       <use x="354.199219" xlink:href="#DejaVuSans-49"/>
      </g>
     </g>
    </g>
    <g id="xtick_8">
     <g id="line2d_8">
      <g>
       <use style="stroke:#000000;stroke-width:0.8;" x="965.659091" xlink:href="#m729e524ba7" y="315"/>
      </g>
     </g>
     <g id="text_8">
      <!-- 2021-03 -->
      <g transform="translate(944.767685 329.598437)scale(0.1 -0.1)">
       <use xlink:href="#DejaVuSans-50"/>
       <use x="63.623047" xlink:href="#DejaVuSans-48"/>
       <use x="127.246094" xlink:href="#DejaVuSans-50"/>
       <use x="190.869141" xlink:href="#DejaVuSans-49"/>
       <use x="254.492188" xlink:href="#DejaVuSans-45"/>
       <use x="290.576172" xlink:href="#DejaVuSans-48"/>
       <use x="354.199219" xlink:href="#DejaVuSans-51"/>
      </g>
     </g>
    </g>
   </g>
   <g id="matplotlib.axis_2">
    <g id="ytick_1">
     <g id="line2d_9">
      <defs>
       <path d="M 0 0 
L -3.5 0 
" id="m92a95bba51" style="stroke:#000000;stroke-width:0.8;"/>
      </defs>
      <g>
       <use style="stroke:#000000;stroke-width:0.8;" x="135" xlink:href="#m92a95bba51" y="302.434628"/>
      </g>
     </g>
     <g id="text_9">
      <!-- 0.00 -->
      <defs>
       <path d="M 10.6875 12.40625 
L 21 12.40625 
L 21 0 
L 10.6875 0 
z
" id="DejaVuSans-46"/>
      </defs>
      <g transform="translate(105.734375 306.233846)scale(0.1 -0.1)">
       <use xlink:href="#DejaVuSans-48"/>
       <use x="63.623047" xlink:href="#DejaVuSans-46"/>
       <use x="95.410156" xlink:href="#DejaVuSans-48"/>
       <use x="159.033203" xlink:href="#DejaVuSans-48"/>
      </g>
     </g>
    </g>
    <g id="ytick_2">
     <g id="line2d_10">
      <g>
       <use style="stroke:#000000;stroke-width:0.8;" x="135" xlink:href="#m92a95bba51" y="267.369061"/>
      </g>
     </g>
     <g id="text_10">
      <!-- 0.02 -->
      <g transform="translate(105.734375 271.16828)scale(0.1 -0.1)">
       <use xlink:href="#DejaVuSans-48"/>
       <use x="63.623047" xlink:href="#DejaVuSans-46"/>
       <use x="95.410156" xlink:href="#DejaVuSans-48"/>
       <use x="159.033203" xlink:href="#DejaVuSans-50"/>
      </g>
     </g>
    </g>
    <g id="ytick_3">
     <g id="line2d_11">
      <g>
       <use style="stroke:#000000;stroke-width:0.8;" x="135" xlink:href="#m92a95bba51" y="232.303495"/>
      </g>
     </g>
     <g id="text_11">
      <!-- 0.04 -->
      <defs>
       <path d="M 37.796875 64.3125 
L 12.890625 25.390625 
L 37.796875 25.390625 
z
M 35.203125 72.90625 
L 47.609375 72.90625 
L 47.609375 25.390625 
L 58.015625 25.390625 
L 58.015625 17.1875 
L 47.609375 17.1875 
L 47.609375 0 
L 37.796875 0 
L 37.796875 17.1875 
L 4.890625 17.1875 
L 4.890625 26.703125 
z
" id="DejaVuSans-52"/>
      </defs>
      <g transform="translate(105.734375 236.102714)scale(0.1 -0.1)">
       <use xlink:href="#DejaVuSans-48"/>
       <use x="63.623047" xlink:href="#DejaVuSans-46"/>
       <use x="95.410156" xlink:href="#DejaVuSans-48"/>
       <use x="159.033203" xlink:href="#DejaVuSans-52"/>
      </g>
     </g>
    </g>
    <g id="ytick_4">
     <g id="line2d_12">
      <g>
       <use style="stroke:#000000;stroke-width:0.8;" x="135" xlink:href="#m92a95bba51" y="197.237929"/>
      </g>
     </g>
     <g id="text_12">
      <!-- 0.06 -->
      <defs>
       <path d="M 33.015625 40.375 
Q 26.375 40.375 22.484375 35.828125 
Q 18.609375 31.296875 18.609375 23.390625 
Q 18.609375 15.53125 22.484375 10.953125 
Q 26.375 6.390625 33.015625 6.390625 
Q 39.65625 6.390625 43.53125 10.953125 
Q 47.40625 15.53125 47.40625 23.390625 
Q 47.40625 31.296875 43.53125 35.828125 
Q 39.65625 40.375 33.015625 40.375 
z
M 52.59375 71.296875 
L 52.59375 62.3125 
Q 48.875 64.0625 45.09375 64.984375 
Q 41.3125 65.921875 37.59375 65.921875 
Q 27.828125 65.921875 22.671875 59.328125 
Q 17.53125 52.734375 16.796875 39.40625 
Q 19.671875 43.65625 24.015625 45.921875 
Q 28.375 48.1875 33.59375 48.1875 
Q 44.578125 48.1875 50.953125 41.515625 
Q 57.328125 34.859375 57.328125 23.390625 
Q 57.328125 12.15625 50.6875 5.359375 
Q 44.046875 -1.421875 33.015625 -1.421875 
Q 20.359375 -1.421875 13.671875 8.265625 
Q 6.984375 17.96875 6.984375 36.375 
Q 6.984375 53.65625 15.1875 63.9375 
Q 23.390625 74.21875 37.203125 74.21875 
Q 40.921875 74.21875 44.703125 73.484375 
Q 48.484375 72.75 52.59375 71.296875 
z
" id="DejaVuSans-54"/>
      </defs>
      <g transform="translate(105.734375 201.037147)scale(0.1 -0.1)">
       <use xlink:href="#DejaVuSans-48"/>
       <use x="63.623047" xlink:href="#DejaVuSans-46"/>
       <use x="95.410156" xlink:href="#DejaVuSans-48"/>
       <use x="159.033203" xlink:href="#DejaVuSans-54"/>
      </g>
     </g>
    </g>
    <g id="ytick_5">
     <g id="line2d_13">
      <g>
       <use style="stroke:#000000;stroke-width:0.8;" x="135" xlink:href="#m92a95bba51" y="162.172362"/>
      </g>
     </g>
     <g id="text_13">
      <!-- 0.08 -->
      <defs>
       <path d="M 31.78125 34.625 
Q 24.75 34.625 20.71875 30.859375 
Q 16.703125 27.09375 16.703125 20.515625 
Q 16.703125 13.921875 20.71875 10.15625 
Q 24.75 6.390625 31.78125 6.390625 
Q 38.8125 6.390625 42.859375 10.171875 
Q 46.921875 13.96875 46.921875 20.515625 
Q 46.921875 27.09375 42.890625 30.859375 
Q 38.875 34.625 31.78125 34.625 
z
M 21.921875 38.8125 
Q 15.578125 40.375 12.03125 44.71875 
Q 8.5 49.078125 8.5 55.328125 
Q 8.5 64.0625 14.71875 69.140625 
Q 20.953125 74.21875 31.78125 74.21875 
Q 42.671875 74.21875 48.875 69.140625 
Q 55.078125 64.0625 55.078125 55.328125 
Q 55.078125 49.078125 51.53125 44.71875 
Q 48 40.375 41.703125 38.8125 
Q 48.828125 37.15625 52.796875 32.3125 
Q 56.78125 27.484375 56.78125 20.515625 
Q 56.78125 9.90625 50.3125 4.234375 
Q 43.84375 -1.421875 31.78125 -1.421875 
Q 19.734375 -1.421875 13.25 4.234375 
Q 6.78125 9.90625 6.78125 20.515625 
Q 6.78125 27.484375 10.78125 32.3125 
Q 14.796875 37.15625 21.921875 38.8125 
z
M 18.3125 54.390625 
Q 18.3125 48.734375 21.84375 45.5625 
Q 25.390625 42.390625 31.78125 42.390625 
Q 38.140625 42.390625 41.71875 45.5625 
Q 45.3125 48.734375 45.3125 54.390625 
Q 45.3125 60.0625 41.71875 63.234375 
Q 38.140625 66.40625 31.78125 66.40625 
Q 25.390625 66.40625 21.84375 63.234375 
Q 18.3125 60.0625 18.3125 54.390625 
z
" id="DejaVuSans-56"/>
      </defs>
      <g transform="translate(105.734375 165.971581)scale(0.1 -0.1)">
       <use xlink:href="#DejaVuSans-48"/>
       <use x="63.623047" xlink:href="#DejaVuSans-46"/>
       <use x="95.410156" xlink:href="#DejaVuSans-48"/>
       <use x="159.033203" xlink:href="#DejaVuSans-56"/>
      </g>
     </g>
    </g>
    <g id="ytick_6">
     <g id="line2d_14">
      <g>
       <use style="stroke:#000000;stroke-width:0.8;" x="135" xlink:href="#m92a95bba51" y="127.106796"/>
      </g>
     </g>
     <g id="text_14">
      <!-- 0.10 -->
      <g transform="translate(105.734375 130.906015)scale(0.1 -0.1)">
       <use xlink:href="#DejaVuSans-48"/>
       <use x="63.623047" xlink:href="#DejaVuSans-46"/>
       <use x="95.410156" xlink:href="#DejaVuSans-49"/>
       <use x="159.033203" xlink:href="#DejaVuSans-48"/>
      </g>
     </g>
    </g>
    <g id="ytick_7">
     <g id="line2d_15">
      <g>
       <use style="stroke:#000000;stroke-width:0.8;" x="135" xlink:href="#m92a95bba51" y="92.04123"/>
      </g>
     </g>
     <g id="text_15">
      <!-- 0.12 -->
      <g transform="translate(105.734375 95.840449)scale(0.1 -0.1)">
       <use xlink:href="#DejaVuSans-48"/>
       <use x="63.623047" xlink:href="#DejaVuSans-46"/>
       <use x="95.410156" xlink:href="#DejaVuSans-49"/>
       <use x="159.033203" xlink:href="#DejaVuSans-50"/>
      </g>
     </g>
    </g>
    <g id="ytick_8">
     <g id="line2d_16">
      <g>
       <use style="stroke:#000000;stroke-width:0.8;" x="135" xlink:href="#m92a95bba51" y="56.975663"/>
      </g>
     </g>
     <g id="text_16">
      <!-- 0.14 -->
      <g transform="translate(105.734375 60.774882)scale(0.1 -0.1)">
       <use xlink:href="#DejaVuSans-48"/>
       <use x="63.623047" xlink:href="#DejaVuSans-46"/>
       <use x="95.410156" xlink:href="#DejaVuSans-49"/>
       <use x="159.033203" xlink:href="#DejaVuSans-52"/>
      </g>
     </g>
    </g>
   </g>
   <g id="patch_3">
    <path d="M 135 315 
L 135 43.2 
" style="fill:none;stroke:#000000;stroke-linecap:square;stroke-linejoin:miter;stroke-width:0.8;"/>
   </g>
   <g id="patch_4">
    <path d="M 972 315 
L 972 43.2 
" style="fill:none;stroke:#000000;stroke-linecap:square;stroke-linejoin:miter;stroke-width:0.8;"/>
   </g>
   <g id="patch_5">
    <path d="M 135 315 
L 972 315 
" style="fill:none;stroke:#000000;stroke-linecap:square;stroke-linejoin:miter;stroke-width:0.8;"/>
   </g>
   <g id="patch_6">
    <path d="M 135 43.2 
L 972 43.2 
" style="fill:none;stroke:#000000;stroke-linecap:square;stroke-linejoin:miter;stroke-width:0.8;"/>
   </g>
   <g id="legend_1">
    <g id="patch_7">
     <path d="M 1007.48 315 
L 1105.689375 315 
Q 1107.689375 315 1107.689375 313 
L 1107.689375 255.2875 
Q 1107.689375 253.2875 1105.689375 253.2875 
L 1007.48 253.2875 
Q 1005.48 253.2875 1005.48 255.2875 
L 1005.48 313 
Q 1005.48 315 1007.48 315 
z
" style="fill:#ffffff;opacity:0.8;stroke:#cccccc;stroke-linejoin:miter;"/>
    </g>
    <g id="patch_8">
     <path d="M 1009.48 264.885938 
L 1029.48 264.885938 
L 1029.48 257.885938 
L 1009.48 257.885938 
z
" style="fill:#1f77b4;"/>
    </g>
    <g id="text_17">
     <!-- Impfen -->
     <defs>
      <path d="M 9.8125 72.90625 
L 19.671875 72.90625 
L 19.671875 0 
L 9.8125 0 
z
" id="DejaVuSans-73"/>
      <path d="M 52 44.1875 
Q 55.375 50.25 60.0625 53.125 
Q 64.75 56 71.09375 56 
Q 79.640625 56 84.28125 50.015625 
Q 88.921875 44.046875 88.921875 33.015625 
L 88.921875 0 
L 79.890625 0 
L 79.890625 32.71875 
Q 79.890625 40.578125 77.09375 44.375 
Q 74.3125 48.1875 68.609375 48.1875 
Q 61.625 48.1875 57.5625 43.546875 
Q 53.515625 38.921875 53.515625 30.90625 
L 53.515625 0 
L 44.484375 0 
L 44.484375 32.71875 
Q 44.484375 40.625 41.703125 44.40625 
Q 38.921875 48.1875 33.109375 48.1875 
Q 26.21875 48.1875 22.15625 43.53125 
Q 18.109375 38.875 18.109375 30.90625 
L 18.109375 0 
L 9.078125 0 
L 9.078125 54.6875 
L 18.109375 54.6875 
L 18.109375 46.1875 
Q 21.1875 51.21875 25.484375 53.609375 
Q 29.78125 56 35.6875 56 
Q 41.65625 56 45.828125 52.96875 
Q 50 49.953125 52 44.1875 
z
" id="DejaVuSans-109"/>
      <path d="M 18.109375 8.203125 
L 18.109375 -20.796875 
L 9.078125 -20.796875 
L 9.078125 54.6875 
L 18.109375 54.6875 
L 18.109375 46.390625 
Q 20.953125 51.265625 25.265625 53.625 
Q 29.59375 56 35.59375 56 
Q 45.5625 56 51.78125 48.09375 
Q 58.015625 40.1875 58.015625 27.296875 
Q 58.015625 14.40625 51.78125 6.484375 
Q 45.5625 -1.421875 35.59375 -1.421875 
Q 29.59375 -1.421875 25.265625 0.953125 
Q 20.953125 3.328125 18.109375 8.203125 
z
M 48.6875 27.296875 
Q 48.6875 37.203125 44.609375 42.84375 
Q 40.53125 48.484375 33.40625 48.484375 
Q 26.265625 48.484375 22.1875 42.84375 
Q 18.109375 37.203125 18.109375 27.296875 
Q 18.109375 17.390625 22.1875 11.75 
Q 26.265625 6.109375 33.40625 6.109375 
Q 40.53125 6.109375 44.609375 11.75 
Q 48.6875 17.390625 48.6875 27.296875 
z
" id="DejaVuSans-112"/>
      <path d="M 37.109375 75.984375 
L 37.109375 68.5 
L 28.515625 68.5 
Q 23.6875 68.5 21.796875 66.546875 
Q 19.921875 64.59375 19.921875 59.515625 
L 19.921875 54.6875 
L 34.71875 54.6875 
L 34.71875 47.703125 
L 19.921875 47.703125 
L 19.921875 0 
L 10.890625 0 
L 10.890625 47.703125 
L 2.296875 47.703125 
L 2.296875 54.6875 
L 10.890625 54.6875 
L 10.890625 58.5 
Q 10.890625 67.625 15.140625 71.796875 
Q 19.390625 75.984375 28.609375 75.984375 
z
" id="DejaVuSans-102"/>
      <path d="M 56.203125 29.59375 
L 56.203125 25.203125 
L 14.890625 25.203125 
Q 15.484375 15.921875 20.484375 11.0625 
Q 25.484375 6.203125 34.421875 6.203125 
Q 39.59375 6.203125 44.453125 7.46875 
Q 49.3125 8.734375 54.109375 11.28125 
L 54.109375 2.78125 
Q 49.265625 0.734375 44.1875 -0.34375 
Q 39.109375 -1.421875 33.890625 -1.421875 
Q 20.796875 -1.421875 13.15625 6.1875 
Q 5.515625 13.8125 5.515625 26.8125 
Q 5.515625 40.234375 12.765625 48.109375 
Q 20.015625 56 32.328125 56 
Q 43.359375 56 49.78125 48.890625 
Q 56.203125 41.796875 56.203125 29.59375 
z
M 47.21875 32.234375 
Q 47.125 39.59375 43.09375 43.984375 
Q 39.0625 48.390625 32.421875 48.390625 
Q 24.90625 48.390625 20.390625 44.140625 
Q 15.875 39.890625 15.1875 32.171875 
z
" id="DejaVuSans-101"/>
      <path d="M 54.890625 33.015625 
L 54.890625 0 
L 45.90625 0 
L 45.90625 32.71875 
Q 45.90625 40.484375 42.875 44.328125 
Q 39.84375 48.1875 33.796875 48.1875 
Q 26.515625 48.1875 22.3125 43.546875 
Q 18.109375 38.921875 18.109375 30.90625 
L 18.109375 0 
L 9.078125 0 
L 9.078125 54.6875 
L 18.109375 54.6875 
L 18.109375 46.1875 
Q 21.34375 51.125 25.703125 53.5625 
Q 30.078125 56 35.796875 56 
Q 45.21875 56 50.046875 50.171875 
Q 54.890625 44.34375 54.890625 33.015625 
z
" id="DejaVuSans-110"/>
     </defs>
     <g transform="translate(1037.48 264.885938)scale(0.1 -0.1)">
      <use xlink:href="#DejaVuSans-73"/>
      <use x="29.492188" xlink:href="#DejaVuSans-109"/>
      <use x="126.904297" xlink:href="#DejaVuSans-112"/>
      <use x="190.380859" xlink:href="#DejaVuSans-102"/>
      <use x="225.585938" xlink:href="#DejaVuSans-101"/>
      <use x="287.109375" xlink:href="#DejaVuSans-110"/>
     </g>
    </g>
    <g id="patch_9">
     <path d="M 1009.48 279.564062 
L 1029.48 279.564062 
L 1029.48 272.564062 
L 1009.48 272.564062 
z
" style="fill:#ff7f0e;"/>
    </g>
    <g id="text_18">
     <!-- Masken -->
     <defs>
      <path d="M 9.8125 72.90625 
L 24.515625 72.90625 
L 43.109375 23.296875 
L 61.8125 72.90625 
L 76.515625 72.90625 
L 76.515625 0 
L 66.890625 0 
L 66.890625 64.015625 
L 48.09375 14.015625 
L 38.1875 14.015625 
L 19.390625 64.015625 
L 19.390625 0 
L 9.8125 0 
z
" id="DejaVuSans-77"/>
      <path d="M 34.28125 27.484375 
Q 23.390625 27.484375 19.1875 25 
Q 14.984375 22.515625 14.984375 16.5 
Q 14.984375 11.71875 18.140625 8.90625 
Q 21.296875 6.109375 26.703125 6.109375 
Q 34.1875 6.109375 38.703125 11.40625 
Q 43.21875 16.703125 43.21875 25.484375 
L 43.21875 27.484375 
z
M 52.203125 31.203125 
L 52.203125 0 
L 43.21875 0 
L 43.21875 8.296875 
Q 40.140625 3.328125 35.546875 0.953125 
Q 30.953125 -1.421875 24.3125 -1.421875 
Q 15.921875 -1.421875 10.953125 3.296875 
Q 6 8.015625 6 15.921875 
Q 6 25.140625 12.171875 29.828125 
Q 18.359375 34.515625 30.609375 34.515625 
L 43.21875 34.515625 
L 43.21875 35.40625 
Q 43.21875 41.609375 39.140625 45 
Q 35.0625 48.390625 27.6875 48.390625 
Q 23 48.390625 18.546875 47.265625 
Q 14.109375 46.140625 10.015625 43.890625 
L 10.015625 52.203125 
Q 14.9375 54.109375 19.578125 55.046875 
Q 24.21875 56 28.609375 56 
Q 40.484375 56 46.34375 49.84375 
Q 52.203125 43.703125 52.203125 31.203125 
z
" id="DejaVuSans-97"/>
      <path d="M 44.28125 53.078125 
L 44.28125 44.578125 
Q 40.484375 46.53125 36.375 47.5 
Q 32.28125 48.484375 27.875 48.484375 
Q 21.1875 48.484375 17.84375 46.4375 
Q 14.5 44.390625 14.5 40.28125 
Q 14.5 37.15625 16.890625 35.375 
Q 19.28125 33.59375 26.515625 31.984375 
L 29.59375 31.296875 
Q 39.15625 29.25 43.1875 25.515625 
Q 47.21875 21.78125 47.21875 15.09375 
Q 47.21875 7.46875 41.1875 3.015625 
Q 35.15625 -1.421875 24.609375 -1.421875 
Q 20.21875 -1.421875 15.453125 -0.5625 
Q 10.6875 0.296875 5.421875 2 
L 5.421875 11.28125 
Q 10.40625 8.6875 15.234375 7.390625 
Q 20.0625 6.109375 24.8125 6.109375 
Q 31.15625 6.109375 34.5625 8.28125 
Q 37.984375 10.453125 37.984375 14.40625 
Q 37.984375 18.0625 35.515625 20.015625 
Q 33.0625 21.96875 24.703125 23.78125 
L 21.578125 24.515625 
Q 13.234375 26.265625 9.515625 29.90625 
Q 5.8125 33.546875 5.8125 39.890625 
Q 5.8125 47.609375 11.28125 51.796875 
Q 16.75 56 26.8125 56 
Q 31.78125 56 36.171875 55.265625 
Q 40.578125 54.546875 44.28125 53.078125 
z
" id="DejaVuSans-115"/>
      <path d="M 9.078125 75.984375 
L 18.109375 75.984375 
L 18.109375 31.109375 
L 44.921875 54.6875 
L 56.390625 54.6875 
L 27.390625 29.109375 
L 57.625 0 
L 45.90625 0 
L 18.109375 26.703125 
L 18.109375 0 
L 9.078125 0 
z
" id="DejaVuSans-107"/>
     </defs>
     <g transform="translate(1037.48 279.564062)scale(0.1 -0.1)">
      <use xlink:href="#DejaVuSans-77"/>
      <use x="86.279297" xlink:href="#DejaVuSans-97"/>
      <use x="147.558594" xlink:href="#DejaVuSans-115"/>
      <use x="199.658203" xlink:href="#DejaVuSans-107"/>
      <use x="253.943359" xlink:href="#DejaVuSans-101"/>
      <use x="315.466797" xlink:href="#DejaVuSans-110"/>
     </g>
    </g>
    <g id="patch_10">
     <path d="M 1009.48 294.242188 
L 1029.48 294.242188 
L 1029.48 287.242188 
L 1009.48 287.242188 
z
" style="fill:#2ca02c;"/>
    </g>
    <g id="text_19">
     <!-- Massnahmen -->
     <defs>
      <path d="M 54.890625 33.015625 
L 54.890625 0 
L 45.90625 0 
L 45.90625 32.71875 
Q 45.90625 40.484375 42.875 44.328125 
Q 39.84375 48.1875 33.796875 48.1875 
Q 26.515625 48.1875 22.3125 43.546875 
Q 18.109375 38.921875 18.109375 30.90625 
L 18.109375 0 
L 9.078125 0 
L 9.078125 75.984375 
L 18.109375 75.984375 
L 18.109375 46.1875 
Q 21.34375 51.125 25.703125 53.5625 
Q 30.078125 56 35.796875 56 
Q 45.21875 56 50.046875 50.171875 
Q 54.890625 44.34375 54.890625 33.015625 
z
" id="DejaVuSans-104"/>
     </defs>
     <g transform="translate(1037.48 294.242188)scale(0.1 -0.1)">
      <use xlink:href="#DejaVuSans-77"/>
      <use x="86.279297" xlink:href="#DejaVuSans-97"/>
      <use x="147.558594" xlink:href="#DejaVuSans-115"/>
      <use x="199.658203" xlink:href="#DejaVuSans-115"/>
      <use x="251.757812" xlink:href="#DejaVuSans-110"/>
      <use x="315.136719" xlink:href="#DejaVuSans-97"/>
      <use x="376.416016" xlink:href="#DejaVuSans-104"/>
      <use x="439.794922" xlink:href="#DejaVuSans-109"/>
      <use x="537.207031" xlink:href="#DejaVuSans-101"/>
      <use x="598.730469" xlink:href="#DejaVuSans-110"/>
     </g>
    </g>
    <g id="patch_11">
     <path d="M 1009.48 308.920313 
L 1029.48 308.920313 
L 1029.48 301.920313 
L 1009.48 301.920313 
z
" style="fill:#d62728;"/>
    </g>
    <g id="text_20">
     <!-- Pandemie -->
     <defs>
      <path d="M 19.671875 64.796875 
L 19.671875 37.40625 
L 32.078125 37.40625 
Q 38.96875 37.40625 42.71875 40.96875 
Q 46.484375 44.53125 46.484375 51.125 
Q 46.484375 57.671875 42.71875 61.234375 
Q 38.96875 64.796875 32.078125 64.796875 
z
M 9.8125 72.90625 
L 32.078125 72.90625 
Q 44.34375 72.90625 50.609375 67.359375 
Q 56.890625 61.8125 56.890625 51.125 
Q 56.890625 40.328125 50.609375 34.8125 
Q 44.34375 29.296875 32.078125 29.296875 
L 19.671875 29.296875 
L 19.671875 0 
L 9.8125 0 
z
" id="DejaVuSans-80"/>
      <path d="M 45.40625 46.390625 
L 45.40625 75.984375 
L 54.390625 75.984375 
L 54.390625 0 
L 45.40625 0 
L 45.40625 8.203125 
Q 42.578125 3.328125 38.25 0.953125 
Q 33.9375 -1.421875 27.875 -1.421875 
Q 17.96875 -1.421875 11.734375 6.484375 
Q 5.515625 14.40625 5.515625 27.296875 
Q 5.515625 40.1875 11.734375 48.09375 
Q 17.96875 56 27.875 56 
Q 33.9375 56 38.25 53.625 
Q 42.578125 51.265625 45.40625 46.390625 
z
M 14.796875 27.296875 
Q 14.796875 17.390625 18.875 11.75 
Q 22.953125 6.109375 30.078125 6.109375 
Q 37.203125 6.109375 41.296875 11.75 
Q 45.40625 17.390625 45.40625 27.296875 
Q 45.40625 37.203125 41.296875 42.84375 
Q 37.203125 48.484375 30.078125 48.484375 
Q 22.953125 48.484375 18.875 42.84375 
Q 14.796875 37.203125 14.796875 27.296875 
z
" id="DejaVuSans-100"/>
      <path d="M 9.421875 54.6875 
L 18.40625 54.6875 
L 18.40625 0 
L 9.421875 0 
z
M 9.421875 75.984375 
L 18.40625 75.984375 
L 18.40625 64.59375 
L 9.421875 64.59375 
z
" id="DejaVuSans-105"/>
     </defs>
     <g transform="translate(1037.48 308.920313)scale(0.1 -0.1)">
      <use xlink:href="#DejaVuSans-80"/>
      <use x="55.802734" xlink:href="#DejaVuSans-97"/>
      <use x="117.082031" xlink:href="#DejaVuSans-110"/>
      <use x="180.460938" xlink:href="#DejaVuSans-100"/>
      <use x="243.9375" xlink:href="#DejaVuSans-101"/>
      <use x="305.460938" xlink:href="#DejaVuSans-109"/>
      <use x="402.873047" xlink:href="#DejaVuSans-105"/>
      <use x="430.65625" xlink:href="#DejaVuSans-101"/>
     </g>
    </g>
   </g>
  </g>
 </g>
 <defs>
  <clipPath id="pab9ad7d2c2">
   <rect height="271.8" width="837" x="135" y="43.2"/>
  </clipPath>
 </defs>
</svg>
