<?xml version="1.0" encoding="utf-8" standalone="no"?>
<!DOCTYPE svg PUBLIC "-//W3C//DTD SVG 1.1//EN"
  "http://www.w3.org/Graphics/SVG/1.1/DTD/svg11.dtd">
<!-- Created with matplotlib (https://matplotlib.org/) -->
<svg height="360pt" version="1.1" viewBox="0 0 1080 360" width="1080pt" xmlns="http://www.w3.org/2000/svg" xmlns:xlink="http://www.w3.org/1999/xlink">
 <defs>
  <style type="text/css">
*{stroke-linecap:butt;stroke-linejoin:round;}
  </style>
 </defs>
 <g id="figure_1">
  <g id="patch_1">
   <path d="M 0 360 
L 1080 360 
L 1080 0 
L 0 0 
z
" style="fill:#ffffff;"/>
  </g>
  <g id="axes_1">
   <g id="patch_2">
    <path d="M 135 315 
L 972 315 
L 972 43.2 
L 135 43.2 
z
" style="fill:#ffffff;"/>
   </g>
   <g id="PolyCollection_1">
    <path clip-path="url(#pd5ece526e2)" d="M 173.045455 175.41062 
L 173.045455 176.124689 
L 176.775401 178.952802 
L 180.505348 181.058589 
L 184.235294 182.44205 
L 187.965241 183.103185 
L 191.695187 183.041993 
L 195.425134 182.258475 
L 199.15508 181.883548 
L 202.885027 183.048129 
L 206.614973 185.752219 
L 210.34492 189.995818 
L 214.074866 193.628967 
L 217.804813 194.501709 
L 221.534759 192.614044 
L 225.264706 187.965973 
L 228.994652 183.080462 
L 232.724599 180.48048 
L 236.454545 180.166026 
L 240.184492 182.137101 
L 243.914439 184.7104 
L 247.644385 186.202618 
L 251.374332 186.613756 
L 255.104278 185.943812 
L 258.834225 185.310123 
L 262.564171 185.830021 
L 266.294118 187.503507 
L 270.024064 190.330581 
L 273.754011 193.106042 
L 277.483957 194.624692 
L 281.213904 194.88653 
L 284.94385 193.891556 
L 288.673797 193.96826 
L 292.403743 197.445131 
L 296.13369 204.32217 
L 299.863636 214.599377 
L 303.593583 223.735376 
L 307.323529 227.188791 
L 311.053476 224.959621 
L 314.783422 217.047868 
L 318.513369 208.338143 
L 322.243316 203.715057 
L 325.973262 203.178611 
L 329.703209 206.728805 
L 333.433155 211.473948 
L 337.163102 214.522349 
L 340.893048 215.87401 
L 344.622995 215.528929 
L 348.352941 215.049864 
L 352.082888 215.999569 
L 355.812834 218.378046 
L 359.542781 222.185294 
L 363.272727 226.138582 
L 367.002674 228.955179 
L 370.73262 230.635084 
L 374.462567 231.178298 
L 378.192513 230.758963 
L 381.92246 229.551221 
L 385.652406 227.555072 
L 389.382353 224.770516 
L 393.112299 221.586003 
L 396.842246 218.389982 
L 400.572193 215.182451 
L 404.302139 211.963413 
L 408.032086 209.489025 
L 411.762032 208.515446 
L 415.491979 209.042678 
L 419.221925 211.070718 
L 422.951872 212.751587 
L 426.681818 212.237301 
L 430.411765 209.527861 
L 434.141711 204.623267 
L 437.871658 200.10102 
L 441.601604 198.538619 
L 445.331551 199.936064 
L 449.061497 204.293356 
L 452.791444 208.696121 
L 456.52139 210.229985 
L 460.251337 208.894948 
L 463.981283 204.69101 
L 467.71123 200.473923 
L 471.441176 199.099438 
L 475.171123 200.567556 
L 478.90107 204.878275 
L 482.631016 209.065046 
L 486.360963 210.161315 
L 490.090909 208.167083 
L 493.820856 203.08235 
L 497.550802 198.971683 
L 501.280749 199.899649 
L 505.010695 205.866248 
L 508.740642 216.871481 
L 512.470588 227.606907 
L 516.200535 232.764087 
L 519.930481 232.343022 
L 523.660428 226.343711 
L 527.390374 218.622699 
L 531.120321 213.036533 
L 534.850267 209.585211 
L 538.580214 208.268734 
L 542.31016 208.287474 
L 546.040107 208.841804 
L 549.770053 209.931722 
L 553.5 211.55723 
L 557.229947 214.361185 
L 560.959893 218.986447 
L 564.68984 225.433016 
L 568.419786 233.700891 
L 572.149733 240.471405 
L 575.879679 242.425889 
L 579.609626 239.564342 
L 583.339572 231.886766 
L 587.069519 223.493367 
L 590.799465 218.484353 
L 594.529412 216.859724 
L 598.259358 218.619481 
L 601.989305 221.301933 
L 605.719251 222.445392 
L 609.449198 222.049859 
L 613.179144 220.115333 
L 616.909091 217.60085 
L 620.639037 215.465448 
L 624.368984 213.709127 
L 628.09893 212.331886 
L 631.828877 211.272935 
L 635.558824 210.471484 
L 639.28877 209.927532 
L 643.018717 209.64108 
L 646.748663 209.725693 
L 650.47861 210.294938 
L 654.208556 211.348814 
L 657.938503 212.887321 
L 661.668449 213.581696 
L 665.398396 212.103175 
L 669.128342 208.451759 
L 672.858289 202.627446 
L 676.588235 197.584645 
L 680.318182 196.277759 
L 684.048128 198.706791 
L 687.778075 204.871739 
L 691.508021 211.760798 
L 695.237968 216.362163 
L 698.967914 218.675835 
L 702.697861 218.701812 
L 706.427807 218.241023 
L 710.157754 219.094394 
L 713.887701 221.261924 
L 717.617647 224.743615 
L 721.347594 226.790584 
L 725.07754 224.653949 
L 728.807487 218.33371 
L 732.537433 207.829867 
L 736.26738 198.744229 
L 739.997326 196.678602 
L 743.727273 201.632986 
L 747.457219 213.607382 
L 751.187166 228.71899 
L 754.917112 243.085008 
L 758.647059 256.705438 
L 762.377005 269.580278 
L 766.106952 278.520973 
L 769.836898 280.338963 
L 773.566845 275.03425 
L 777.296791 262.606833 
L 781.026738 249.275089 
L 784.756684 241.257397 
L 788.486631 238.553756 
L 792.216578 241.164166 
L 795.946524 245.390397 
L 799.676471 247.534221 
L 803.406417 247.595638 
L 807.136364 245.574647 
L 810.86631 243.637372 
L 814.596257 243.949934 
L 818.326203 246.512334 
L 822.05615 251.324571 
L 825.786096 257.683563 
L 829.516043 264.886226 
L 833.245989 272.93256 
L 836.975936 281.822566 
L 840.705882 290.085196 
L 844.435829 296.249401 
L 848.165775 300.315183 
L 851.895722 302.28254 
L 855.625668 302.645455 
L 859.355615 301.897906 
L 863.085561 300.039895 
L 866.815508 297.071421 
L 870.545455 293.629228 
L 874.275401 290.350059 
L 878.005348 287.233914 
L 881.735294 284.280793 
L 885.465241 282.754978 
L 889.195187 283.920749 
L 892.925134 287.778106 
L 896.65508 294.32705 
L 900.385027 300.089107 
L 904.114973 301.585803 
L 907.84492 298.817138 
L 911.574866 291.783113 
L 915.304813 284.331084 
L 919.034759 280.308406 
L 922.764706 279.715081 
L 926.494652 282.551107 
L 930.224599 288.816486 
L 933.954545 298.511216 
L 933.954545 182.742647 
L 933.954545 182.742647 
L 930.224599 184.830413 
L 926.494652 186.236048 
L 922.764706 186.959552 
L 919.034759 187.000925 
L 915.304813 186.360166 
L 911.574866 185.037276 
L 907.84492 183.616476 
L 904.114973 182.681985 
L 900.385027 182.233804 
L 896.65508 182.271932 
L 892.925134 182.654832 
L 889.195187 183.240966 
L 885.465241 184.030333 
L 881.735294 185.022933 
L 878.005348 185.774709 
L 874.275401 185.841605 
L 870.545455 185.223621 
L 866.815508 183.920756 
L 863.085561 182.763184 
L 859.355615 182.581077 
L 855.625668 183.374436 
L 851.895722 185.14326 
L 848.165775 186.569904 
L 844.435829 186.336721 
L 840.705882 184.443713 
L 836.975936 180.890879 
L 833.245989 177.249217 
L 829.516043 175.089723 
L 825.786096 174.412397 
L 822.05615 175.21724 
L 818.326203 177.19581 
L 814.596257 180.039664 
L 810.86631 183.748804 
L 807.136364 188.323228 
L 803.406417 191.972781 
L 799.676471 192.907308 
L 795.946524 191.126808 
L 792.216578 186.631283 
L 788.486631 181.68939 
L 784.756684 178.569789 
L 781.026738 177.272481 
L 777.296791 177.797464 
L 773.566845 179.069362 
L 769.836898 180.012796 
L 766.106952 180.627767 
L 762.377005 180.914273 
L 758.647059 181.124937 
L 754.917112 181.512378 
L 751.187166 182.076597 
L 747.457219 182.817593 
L 743.727273 184.797505 
L 739.997326 189.078471 
L 736.26738 195.66049 
L 732.537433 204.543564 
L 728.807487 212.548441 
L 725.07754 216.495873 
L 721.347594 216.385859 
L 717.617647 212.218399 
L 713.887701 207.097401 
L 710.157754 204.12677 
L 706.427807 203.306508 
L 702.697861 204.636615 
L 698.967914 205.929992 
L 695.237968 204.999543 
L 691.508021 201.845268 
L 687.778075 196.467168 
L 684.048128 190.901683 
L 680.318182 187.185255 
L 676.588235 185.317885 
L 672.858289 185.299572 
L 669.128342 186.211329 
L 665.398396 187.134165 
L 661.668449 188.068082 
L 657.938503 189.013079 
L 654.208556 189.816315 
L 650.47861 190.324949 
L 646.748663 190.538982 
L 643.018717 190.458412 
L 639.28877 190.818159 
L 635.558824 192.353138 
L 631.828877 195.063351 
L 628.09893 198.948797 
L 624.368984 203.204445 
L 620.639037 207.025266 
L 616.909091 210.411258 
L 613.179144 213.362422 
L 609.449198 215.437523 
L 605.719251 216.195329 
L 601.989305 215.635837 
L 598.259358 213.75905 
L 594.529412 210.571806 
L 590.799465 206.080944 
L 587.069519 200.286464 
L 583.339572 193.188366 
L 579.609626 187.209758 
L 575.879679 184.773748 
L 572.149733 185.880335 
L 568.419786 190.529519 
L 564.68984 196.080948 
L 560.959893 199.89427 
L 557.229947 201.969486 
L 553.5 202.306595 
L 549.770053 201.563046 
L 546.040107 200.396285 
L 542.31016 198.806313 
L 538.580214 196.793131 
L 534.850267 196.34032 
L 531.120321 199.431464 
L 527.390374 206.066564 
L 523.660428 216.24562 
L 519.930481 225.01947 
L 516.200535 227.438956 
L 512.470588 223.504078 
L 508.740642 213.214834 
L 505.010695 202.230791 
L 501.280749 196.211511 
L 497.550802 195.156996 
L 493.820856 199.067245 
L 490.090909 203.509187 
L 486.360963 204.049751 
L 482.631016 200.688937 
L 478.90107 193.426745 
L 475.171123 186.427661 
L 471.441176 183.856171 
L 467.71123 185.712276 
L 463.981283 191.995974 
L 460.251337 198.942222 
L 456.52139 202.785974 
L 452.791444 203.52723 
L 449.061497 201.16599 
L 445.331551 197.300773 
L 441.601604 193.5301 
L 437.871658 189.85397 
L 434.141711 186.272383 
L 430.411765 184.114531 
L 426.681818 184.709604 
L 422.951872 188.057602 
L 419.221925 194.158526 
L 415.491979 200.843876 
L 411.762032 205.945149 
L 408.032086 209.462347 
L 404.302139 211.395468 
L 400.572193 212.234064 
L 396.842246 212.467685 
L 393.112299 212.096331 
L 389.382353 211.120001 
L 385.652406 210.748563 
L 381.92246 212.191887 
L 378.192513 215.449971 
L 374.462567 220.522816 
L 370.73262 224.706292 
L 367.002674 225.296268 
L 363.272727 222.292745 
L 359.542781 215.695723 
L 355.812834 208.754887 
L 352.082888 204.719922 
L 348.352941 203.590829 
L 344.622995 205.367608 
L 340.893048 207.516363 
L 337.163102 207.503199 
L 333.433155 205.328117 
L 329.703209 200.991116 
L 325.973262 197.802128 
L 322.243316 199.071083 
L 318.513369 204.797983 
L 314.783422 214.982827 
L 311.053476 224.241226 
L 307.323529 227.188791 
L 303.593583 223.825522 
L 299.863636 214.151419 
L 296.13369 203.016329 
L 292.403743 195.270099 
L 288.673797 190.912727 
L 284.94385 189.944214 
L 281.213904 190.328753 
L 277.483957 190.030535 
L 273.754011 189.049559 
L 270.024064 187.385827 
L 266.294118 185.370835 
L 262.564171 183.336081 
L 258.834225 181.281564 
L 255.104278 179.207285 
L 251.374332 177.522502 
L 247.644385 176.636474 
L 243.914439 176.549201 
L 240.184492 177.260684 
L 236.454545 178.181946 
L 232.724599 178.724012 
L 228.994652 178.886883 
L 225.264706 178.670558 
L 221.534759 178.485895 
L 217.804813 178.743755 
L 214.074866 179.444135 
L 210.34492 180.587037 
L 206.614973 181.663716 
L 202.885027 182.165427 
L 199.15508 182.092171 
L 195.425134 181.443947 
L 191.695187 180.496598 
L 187.965241 179.525966 
L 184.235294 178.532053 
L 180.505348 177.514857 
L 176.775401 176.47438 
L 173.045455 175.41062 
z
" style="fill:#1f77b4;"/>
   </g>
   <g id="PolyCollection_2">
    <path clip-path="url(#pd5ece526e2)" d="M 173.045455 173.982481 
L 173.045455 175.41062 
L 176.775401 176.47438 
L 180.505348 177.514857 
L 184.235294 178.532053 
L 187.965241 179.525966 
L 191.695187 180.496598 
L 195.425134 181.443947 
L 199.15508 182.092171 
L 202.885027 182.165427 
L 206.614973 181.663716 
L 210.34492 180.587037 
L 214.074866 179.444135 
L 217.804813 178.743755 
L 221.534759 178.485895 
L 225.264706 178.670558 
L 228.994652 178.886883 
L 232.724599 178.724012 
L 236.454545 178.181946 
L 240.184492 177.260684 
L 243.914439 176.549201 
L 247.644385 176.636474 
L 251.374332 177.522502 
L 255.104278 179.207285 
L 258.834225 181.281564 
L 262.564171 183.336081 
L 266.294118 185.370835 
L 270.024064 187.385827 
L 273.754011 189.049559 
L 277.483957 190.030535 
L 281.213904 190.328753 
L 284.94385 189.944214 
L 288.673797 190.912727 
L 292.403743 195.270099 
L 296.13369 203.016329 
L 299.863636 214.151419 
L 303.593583 223.825522 
L 307.323529 227.188791 
L 311.053476 224.241226 
L 314.783422 214.982827 
L 318.513369 204.797983 
L 322.243316 199.071083 
L 325.973262 197.802128 
L 329.703209 200.991116 
L 333.433155 205.328117 
L 337.163102 207.503199 
L 340.893048 207.516363 
L 344.622995 205.367608 
L 348.352941 203.590829 
L 352.082888 204.719922 
L 355.812834 208.754887 
L 359.542781 215.695723 
L 363.272727 222.292745 
L 367.002674 225.296268 
L 370.73262 224.706292 
L 374.462567 220.522816 
L 378.192513 215.449971 
L 381.92246 212.191887 
L 385.652406 210.748563 
L 389.382353 211.120001 
L 393.112299 212.096331 
L 396.842246 212.467685 
L 400.572193 212.234064 
L 404.302139 211.395468 
L 408.032086 209.462347 
L 411.762032 205.945149 
L 415.491979 200.843876 
L 419.221925 194.158526 
L 422.951872 188.057602 
L 426.681818 184.709604 
L 430.411765 184.114531 
L 434.141711 186.272383 
L 437.871658 189.85397 
L 441.601604 193.5301 
L 445.331551 197.300773 
L 449.061497 201.16599 
L 452.791444 203.52723 
L 456.52139 202.785974 
L 460.251337 198.942222 
L 463.981283 191.995974 
L 467.71123 185.712276 
L 471.441176 183.856171 
L 475.171123 186.427661 
L 478.90107 193.426745 
L 482.631016 200.688937 
L 486.360963 204.049751 
L 490.090909 203.509187 
L 493.820856 199.067245 
L 497.550802 195.156996 
L 501.280749 196.211511 
L 505.010695 202.230791 
L 508.740642 213.214834 
L 512.470588 223.504078 
L 516.200535 227.438956 
L 519.930481 225.01947 
L 523.660428 216.24562 
L 527.390374 206.066564 
L 531.120321 199.431464 
L 534.850267 196.34032 
L 538.580214 196.793131 
L 542.31016 198.806313 
L 546.040107 200.396285 
L 549.770053 201.563046 
L 553.5 202.306595 
L 557.229947 201.969486 
L 560.959893 199.89427 
L 564.68984 196.080948 
L 568.419786 190.529519 
L 572.149733 185.880335 
L 575.879679 184.773748 
L 579.609626 187.209758 
L 583.339572 193.188366 
L 587.069519 200.286464 
L 590.799465 206.080944 
L 594.529412 210.571806 
L 598.259358 213.75905 
L 601.989305 215.635837 
L 605.719251 216.195329 
L 609.449198 215.437523 
L 613.179144 213.362422 
L 616.909091 210.411258 
L 620.639037 207.025266 
L 624.368984 203.204445 
L 628.09893 198.948797 
L 631.828877 195.063351 
L 635.558824 192.353138 
L 639.28877 190.818159 
L 643.018717 190.458412 
L 646.748663 190.538982 
L 650.47861 190.324949 
L 654.208556 189.816315 
L 657.938503 189.013079 
L 661.668449 188.068082 
L 665.398396 187.134165 
L 669.128342 186.211329 
L 672.858289 185.299572 
L 676.588235 185.317885 
L 680.318182 187.185255 
L 684.048128 190.901683 
L 687.778075 196.467168 
L 691.508021 201.845268 
L 695.237968 204.999543 
L 698.967914 205.929992 
L 702.697861 204.636615 
L 706.427807 203.306508 
L 710.157754 204.12677 
L 713.887701 207.097401 
L 717.617647 212.218399 
L 721.347594 216.385859 
L 725.07754 216.495873 
L 728.807487 212.548441 
L 732.537433 204.543564 
L 736.26738 195.66049 
L 739.997326 189.078471 
L 743.727273 184.797505 
L 747.457219 182.817593 
L 751.187166 182.076597 
L 754.917112 181.512378 
L 758.647059 181.124937 
L 762.377005 180.914273 
L 766.106952 180.627767 
L 769.836898 180.012796 
L 773.566845 179.069362 
L 777.296791 177.797464 
L 781.026738 177.272481 
L 784.756684 178.569789 
L 788.486631 181.68939 
L 792.216578 186.631283 
L 795.946524 191.126808 
L 799.676471 192.907308 
L 803.406417 191.972781 
L 807.136364 188.323228 
L 810.86631 183.748804 
L 814.596257 180.039664 
L 818.326203 177.19581 
L 822.05615 175.21724 
L 825.786096 174.412397 
L 829.516043 175.089723 
L 833.245989 177.249217 
L 836.975936 180.890879 
L 840.705882 184.443713 
L 844.435829 186.336721 
L 848.165775 186.569904 
L 851.895722 185.14326 
L 855.625668 183.374436 
L 859.355615 182.581077 
L 863.085561 182.763184 
L 866.815508 183.920756 
L 870.545455 185.223621 
L 874.275401 185.841605 
L 878.005348 185.774709 
L 881.735294 185.022933 
L 885.465241 184.030333 
L 889.195187 183.240966 
L 892.925134 182.654832 
L 896.65508 182.271932 
L 900.385027 182.233804 
L 904.114973 182.681985 
L 907.84492 183.616476 
L 911.574866 185.037276 
L 915.304813 186.360166 
L 919.034759 187.000925 
L 922.764706 186.959552 
L 926.494652 186.236048 
L 930.224599 184.830413 
L 933.954545 182.742647 
L 933.954545 157.301172 
L 933.954545 157.301172 
L 930.224599 162.332858 
L 926.494652 165.749804 
L 922.764706 167.552012 
L 919.034759 167.739482 
L 915.304813 166.312213 
L 911.574866 163.270206 
L 907.84492 160.419515 
L 904.114973 159.566196 
L 900.385027 160.710249 
L 896.65508 163.851673 
L 892.925134 167.60105 
L 889.195187 170.56896 
L 885.465241 172.755403 
L 881.735294 174.160379 
L 878.005348 174.723143 
L 874.275401 174.38295 
L 870.545455 173.139802 
L 866.815508 170.993697 
L 863.085561 169.547215 
L 859.355615 170.402932 
L 855.625668 173.560849 
L 851.895722 179.020966 
L 848.165775 184.155514 
L 844.435829 186.336721 
L 840.705882 185.564589 
L 836.975936 181.839117 
L 833.245989 177.550698 
L 829.516043 175.089723 
L 825.786096 174.456192 
L 822.05615 175.650106 
L 818.326203 177.801313 
L 814.596257 180.039664 
L 810.86631 182.365159 
L 807.136364 184.777796 
L 803.406417 186.399471 
L 799.676471 186.352078 
L 795.946524 184.635617 
L 792.216578 181.250087 
L 788.486631 177.223352 
L 784.756684 173.583275 
L 781.026738 170.329856 
L 777.296791 167.463096 
L 773.566845 165.544818 
L 769.836898 165.136847 
L 766.106952 166.239184 
L 762.377005 168.851829 
L 758.647059 172.00871 
L 754.917112 174.743756 
L 751.187166 177.056967 
L 747.457219 178.948343 
L 743.727273 180.332698 
L 739.997326 181.124846 
L 736.26738 181.324787 
L 732.537433 180.932521 
L 728.807487 180.222896 
L 725.07754 179.47076 
L 721.347594 178.676113 
L 717.617647 177.838954 
L 713.887701 177.052246 
L 710.157754 176.40895 
L 706.427807 175.909065 
L 702.697861 175.552592 
L 698.967914 175.325568 
L 695.237968 175.214033 
L 691.508021 175.217987 
L 687.778075 175.337428 
L 684.048128 175.230859 
L 680.318182 174.556778 
L 676.588235 173.315185 
L 672.858289 171.506082 
L 669.128342 169.649676 
L 665.398396 168.26618 
L 661.668449 167.355591 
L 657.938503 166.917912 
L 654.208556 167.067012 
L 650.47861 167.916765 
L 646.748663 169.46717 
L 643.018717 171.718228 
L 639.28877 173.677861 
L 635.558824 174.353992 
L 631.828877 173.746622 
L 628.09893 171.85575 
L 624.368984 169.461862 
L 620.639037 167.345446 
L 616.909091 165.506501 
L 613.179144 163.945027 
L 609.449198 163.210161 
L 605.719251 163.851043 
L 601.989305 165.867672 
L 598.259358 169.260048 
L 594.529412 172.395475 
L 590.799465 173.641257 
L 587.069519 172.997394 
L 583.339572 170.463886 
L 579.609626 167.555618 
L 575.879679 165.787474 
L 572.149733 165.159455 
L 568.419786 165.67156 
L 564.68984 166.643991 
L 560.959893 167.396948 
L 557.229947 167.930433 
L 553.5 168.244444 
L 549.770053 168.542275 
L 546.040107 169.027217 
L 542.31016 169.69927 
L 538.580214 170.558434 
L 534.850267 171.095161 
L 531.120321 170.799903 
L 527.390374 169.672659 
L 523.660428 167.71343 
L 519.930481 165.915922 
L 516.200535 165.273842 
L 512.470588 165.787191 
L 508.740642 167.455968 
L 505.010695 169.313859 
L 501.280749 170.394548 
L 497.550802 170.698035 
L 493.820856 170.224321 
L 490.090909 169.540542 
L 486.360963 169.213836 
L 482.631016 169.244204 
L 478.90107 169.631645 
L 475.171123 170.188456 
L 471.441176 170.726934 
L 467.71123 171.24708 
L 463.981283 171.748892 
L 460.251337 172.279458 
L 456.52139 172.885864 
L 452.791444 173.568109 
L 449.061497 174.326194 
L 445.331551 174.829687 
L 441.601604 174.748156 
L 437.871658 174.081601 
L 434.141711 172.830023 
L 430.411765 172.204519 
L 426.681818 173.416189 
L 422.951872 176.465033 
L 419.221925 181.351051 
L 415.491979 185.557856 
L 411.762032 186.56906 
L 408.032086 184.384664 
L 404.302139 179.004668 
L 400.572193 173.235491 
L 396.842246 169.883555 
L 393.112299 168.948859 
L 389.382353 170.431404 
L 385.652406 172.718603 
L 381.92246 174.197873 
L 378.192513 174.869213 
L 374.462567 174.732624 
L 370.73262 174.558422 
L 367.002674 175.116926 
L 363.272727 176.408135 
L 359.542781 178.43205 
L 355.812834 180.257194 
L 352.082888 180.952093 
L 348.352941 180.516746 
L 344.622995 178.951153 
L 340.893048 177.470591 
L 337.163102 177.290336 
L 333.433155 178.410388 
L 329.703209 180.830748 
L 325.973262 184.011757 
L 322.243316 187.413761 
L 318.513369 191.036758 
L 314.783422 194.880749 
L 311.053476 197.746291 
L 307.323529 198.433941 
L 303.593583 196.943701 
L 299.863636 193.275568 
L 296.13369 188.586245 
L 292.403743 184.032432 
L 288.673797 179.614128 
L 284.94385 175.331333 
L 281.213904 171.894263 
L 277.483957 170.013134 
L 273.754011 169.687945 
L 270.024064 170.918696 
L 266.294118 172.637377 
L 262.564171 173.775978 
L 258.834225 174.334499 
L 255.104278 174.31294 
L 251.374332 174.158257 
L 247.644385 174.317408 
L 243.914439 174.790393 
L 240.184492 175.577211 
L 236.454545 176.286883 
L 232.724599 176.528428 
L 228.994652 176.301846 
L 225.264706 175.607137 
L 221.534759 175.007691 
L 217.804813 175.066899 
L 214.074866 175.78476 
L 210.34492 177.161275 
L 206.614973 178.382532 
L 202.885027 178.634619 
L 199.15508 177.917538 
L 195.425134 176.231288 
L 191.695187 174.359792 
L 187.965241 173.086974 
L 184.235294 172.412834 
L 180.505348 172.337372 
L 176.775401 172.860587 
L 173.045455 173.982481 
z
" style="fill:#ff7f0e;"/>
   </g>
   <g id="PolyCollection_3">
    <path clip-path="url(#pd5ece526e2)" d="M 173.045455 173.982481 
L 173.045455 173.982481 
L 176.775401 172.860587 
L 180.505348 172.337372 
L 184.235294 172.412834 
L 187.965241 173.086974 
L 191.695187 174.359792 
L 195.425134 176.231288 
L 199.15508 177.917538 
L 202.885027 178.634619 
L 206.614973 178.382532 
L 210.34492 177.161275 
L 214.074866 175.78476 
L 217.804813 175.066899 
L 221.534759 175.007691 
L 225.264706 175.607137 
L 228.994652 176.301846 
L 232.724599 176.528428 
L 236.454545 176.286883 
L 240.184492 175.577211 
L 243.914439 174.790393 
L 247.644385 174.317408 
L 251.374332 174.158257 
L 255.104278 174.31294 
L 258.834225 174.334499 
L 262.564171 173.775978 
L 266.294118 172.637377 
L 270.024064 170.918696 
L 273.754011 169.687945 
L 277.483957 170.013134 
L 281.213904 171.894263 
L 284.94385 175.331333 
L 288.673797 179.614128 
L 292.403743 184.032432 
L 296.13369 188.586245 
L 299.863636 193.275568 
L 303.593583 196.943701 
L 307.323529 198.433941 
L 311.053476 197.746291 
L 314.783422 194.880749 
L 318.513369 191.036758 
L 322.243316 187.413761 
L 325.973262 184.011757 
L 329.703209 180.830748 
L 333.433155 178.410388 
L 337.163102 177.290336 
L 340.893048 177.470591 
L 344.622995 178.951153 
L 348.352941 180.516746 
L 352.082888 180.952093 
L 355.812834 180.257194 
L 359.542781 178.43205 
L 363.272727 176.408135 
L 367.002674 175.116926 
L 370.73262 174.558422 
L 374.462567 174.732624 
L 378.192513 174.869213 
L 381.92246 174.197873 
L 385.652406 172.718603 
L 389.382353 170.431404 
L 393.112299 168.948859 
L 396.842246 169.883555 
L 400.572193 173.235491 
L 404.302139 179.004668 
L 408.032086 184.384664 
L 411.762032 186.56906 
L 415.491979 185.557856 
L 419.221925 181.351051 
L 422.951872 176.465033 
L 426.681818 173.416189 
L 430.411765 172.204519 
L 434.141711 172.830023 
L 437.871658 174.081601 
L 441.601604 174.748156 
L 445.331551 174.829687 
L 449.061497 174.326194 
L 452.791444 173.568109 
L 456.52139 172.885864 
L 460.251337 172.279458 
L 463.981283 171.748892 
L 467.71123 171.24708 
L 471.441176 170.726934 
L 475.171123 170.188456 
L 478.90107 169.631645 
L 482.631016 169.244204 
L 486.360963 169.213836 
L 490.090909 169.540542 
L 493.820856 170.224321 
L 497.550802 170.698035 
L 501.280749 170.394548 
L 505.010695 169.313859 
L 508.740642 167.455968 
L 512.470588 165.787191 
L 516.200535 165.273842 
L 519.930481 165.915922 
L 523.660428 167.71343 
L 527.390374 169.672659 
L 531.120321 170.799903 
L 534.850267 171.095161 
L 538.580214 170.558434 
L 542.31016 169.69927 
L 546.040107 169.027217 
L 549.770053 168.542275 
L 553.5 168.244444 
L 557.229947 167.930433 
L 560.959893 167.396948 
L 564.68984 166.643991 
L 568.419786 165.67156 
L 572.149733 165.159455 
L 575.879679 165.787474 
L 579.609626 167.555618 
L 583.339572 170.463886 
L 587.069519 172.997394 
L 590.799465 173.641257 
L 594.529412 172.395475 
L 598.259358 169.260048 
L 601.989305 165.867672 
L 605.719251 163.851043 
L 609.449198 163.210161 
L 613.179144 163.945027 
L 616.909091 165.506501 
L 620.639037 167.345446 
L 624.368984 169.461862 
L 628.09893 171.85575 
L 631.828877 173.746622 
L 635.558824 174.353992 
L 639.28877 173.677861 
L 643.018717 171.718228 
L 646.748663 169.46717 
L 650.47861 167.916765 
L 654.208556 167.067012 
L 657.938503 166.917912 
L 661.668449 167.355591 
L 665.398396 168.26618 
L 669.128342 169.649676 
L 672.858289 171.506082 
L 676.588235 173.315185 
L 680.318182 174.556778 
L 684.048128 175.230859 
L 687.778075 175.337428 
L 691.508021 175.217987 
L 695.237968 175.214033 
L 698.967914 175.325568 
L 702.697861 175.552592 
L 706.427807 175.909065 
L 710.157754 176.40895 
L 713.887701 177.052246 
L 717.617647 177.838954 
L 721.347594 178.676113 
L 725.07754 179.47076 
L 728.807487 180.222896 
L 732.537433 180.932521 
L 736.26738 181.324787 
L 739.997326 181.124846 
L 743.727273 180.332698 
L 747.457219 178.948343 
L 751.187166 177.056967 
L 754.917112 174.743756 
L 758.647059 172.00871 
L 762.377005 168.851829 
L 766.106952 166.239184 
L 769.836898 165.136847 
L 773.566845 165.544818 
L 777.296791 167.463096 
L 781.026738 170.329856 
L 784.756684 173.583275 
L 788.486631 177.223352 
L 792.216578 181.250087 
L 795.946524 184.635617 
L 799.676471 186.352078 
L 803.406417 186.399471 
L 807.136364 184.777796 
L 810.86631 182.365159 
L 814.596257 180.039664 
L 818.326203 177.801313 
L 822.05615 175.650106 
L 825.786096 174.456192 
L 829.516043 175.089723 
L 833.245989 177.550698 
L 836.975936 181.839117 
L 840.705882 185.564589 
L 844.435829 186.336721 
L 848.165775 184.155514 
L 851.895722 179.020966 
L 855.625668 173.560849 
L 859.355615 170.402932 
L 863.085561 169.547215 
L 866.815508 170.993697 
L 870.545455 173.139802 
L 874.275401 174.38295 
L 878.005348 174.723143 
L 881.735294 174.160379 
L 885.465241 172.755403 
L 889.195187 170.56896 
L 892.925134 167.60105 
L 896.65508 163.851673 
L 900.385027 160.710249 
L 904.114973 159.566196 
L 907.84492 160.419515 
L 911.574866 163.270206 
L 915.304813 166.312213 
L 919.034759 167.739482 
L 922.764706 167.552012 
L 926.494652 165.749804 
L 930.224599 162.332858 
L 933.954545 157.301172 
L 933.954545 150.398447 
L 933.954545 150.398447 
L 930.224599 154.823317 
L 926.494652 157.793833 
L 922.764706 159.309997 
L 919.034759 159.371806 
L 915.304813 157.979262 
L 911.574866 155.132365 
L 907.84492 152.712185 
L 904.114973 152.599794 
L 900.385027 154.795192 
L 896.65508 159.298379 
L 892.925134 163.238718 
L 889.195187 163.745572 
L 885.465241 160.818941 
L 881.735294 154.458824 
L 878.005348 147.773827 
L 874.275401 143.872556 
L 870.545455 142.755011 
L 866.815508 144.421192 
L 863.085561 147.045221 
L 859.355615 148.801222 
L 855.625668 149.689193 
L 851.895722 149.709135 
L 848.165775 149.538252 
L 844.435829 149.85375 
L 840.705882 150.655629 
L 836.975936 151.943887 
L 833.245989 153.543112 
L 829.516043 155.277887 
L 825.786096 157.148212 
L 822.05615 159.154089 
L 818.326203 160.228476 
L 814.596257 159.304333 
L 810.86631 156.38166 
L 807.136364 151.460457 
L 803.406417 147.117149 
L 799.676471 145.928162 
L 795.946524 147.893494 
L 792.216578 153.013147 
L 788.486631 158.476559 
L 784.756684 161.473169 
L 781.026738 162.002977 
L 777.296791 160.065984 
L 773.566845 157.413324 
L 769.836898 155.796135 
L 766.106952 155.214417 
L 762.377005 155.668169 
L 758.647059 156.665127 
L 754.917112 157.713028 
L 751.187166 158.811871 
L 747.457219 159.961657 
L 743.727273 160.405105 
L 739.997326 159.384937 
L 736.26738 156.901151 
L 732.537433 152.953749 
L 728.807487 148.928435 
L 725.07754 146.210912 
L 721.347594 144.801182 
L 717.617647 144.699244 
L 713.887701 145.372642 
L 710.157754 146.288918 
L 706.427807 147.448074 
L 702.697861 148.850108 
L 698.967914 150.74215 
L 695.237968 153.371326 
L 691.508021 156.737638 
L 687.778075 160.841084 
L 684.048128 164.4602 
L 680.318182 166.373524 
L 676.588235 166.581055 
L 672.858289 165.082792 
L 669.128342 163.093066 
L 665.398396 161.826209 
L 661.668449 161.282219 
L 657.938503 161.461098 
L 654.208556 161.69068 
L 650.47861 161.298804 
L 646.748663 160.285468 
L 643.018717 158.650673 
L 639.28877 156.865555 
L 635.558824 155.401249 
L 631.828877 154.257756 
L 628.09893 153.435076 
L 624.368984 152.745085 
L 620.639037 151.99966 
L 616.909091 151.198801 
L 613.179144 150.342508 
L 609.449198 149.761976 
L 605.719251 149.788399 
L 601.989305 150.421778 
L 598.259358 151.662111 
L 594.529412 153.182113 
L 590.799465 154.654499 
L 587.069519 156.079267 
L 583.339572 157.456419 
L 579.609626 158.389225 
L 575.879679 158.480958 
L 572.149733 157.731619 
L 568.419786 156.141206 
L 564.68984 154.395272 
L 560.959893 153.17937 
L 557.229947 152.493499 
L 553.5 152.337658 
L 549.770053 153.171347 
L 546.040107 155.454062 
L 542.31016 159.185804 
L 538.580214 164.366572 
L 534.850267 167.785329 
L 531.120321 166.231037 
L 527.390374 159.703696 
L 523.660428 148.203307 
L 519.930481 137.547669 
L 516.200535 133.554585 
L 512.470588 136.224053 
L 508.740642 145.556074 
L 505.010695 155.712769 
L 501.280749 160.856261 
L 497.550802 160.98655 
L 493.820856 156.103634 
L 490.090909 150.766617 
L 486.360963 149.5346 
L 482.631016 152.407583 
L 478.90107 159.385567 
L 475.171123 166.263275 
L 471.441176 168.835434 
L 467.71123 167.102044 
L 463.981283 161.063105 
L 460.251337 154.463996 
L 456.52139 151.050099 
L 452.791444 150.821414 
L 449.061497 153.77794 
L 445.331551 158.164736 
L 441.601604 162.22686 
L 437.871658 165.964313 
L 434.141711 169.377095 
L 430.411765 171.747402 
L 426.681818 172.357432 
L 422.951872 171.207184 
L 419.221925 168.296659 
L 415.491979 164.69197 
L 411.762032 161.459232 
L 408.032086 158.598443 
L 404.302139 156.109605 
L 400.572193 154.030442 
L 396.842246 152.398681 
L 393.112299 151.214321 
L 389.382353 150.477362 
L 385.652406 149.559227 
L 381.92246 147.831338 
L 378.192513 145.293696 
L 374.462567 141.946299 
L 370.73262 139.555299 
L 367.002674 139.886845 
L 363.272727 142.940937 
L 359.542781 148.717574 
L 355.812834 154.503913 
L 352.082888 157.587109 
L 348.352941 157.967162 
L 344.622995 155.644071 
L 340.893048 152.733222 
L 337.163102 151.349999 
L 333.433155 151.494402 
L 329.703209 153.16643 
L 325.973262 153.563461 
L 322.243316 149.882869 
L 318.513369 142.124654 
L 314.783422 130.288818 
L 311.053476 119.83255 
L 307.323529 116.213045 
L 303.593583 119.4303 
L 299.863636 129.484318 
L 296.13369 141.429295 
L 292.403743 150.319431 
L 288.673797 156.154725 
L 284.94385 158.935179 
L 281.213904 160.198182 
L 277.483957 161.481127 
L 273.754011 162.784013 
L 270.024064 164.106841 
L 266.294118 165.423984 
L 262.564171 166.709816 
L 258.834225 167.964337 
L 255.104278 169.187547 
L 251.374332 170.20414 
L 247.644385 170.83881 
L 243.914439 171.091558 
L 240.184492 170.962383 
L 236.454545 170.547138 
L 232.724599 169.941675 
L 228.994652 169.145994 
L 225.264706 168.160095 
L 221.534759 167.113915 
L 217.804813 166.137391 
L 214.074866 165.230523 
L 210.34492 164.39331 
L 206.614973 163.911299 
L 202.885027 164.070036 
L 199.15508 164.869522 
L 195.425134 166.309755 
L 191.695187 167.990058 
L 187.965241 169.509756 
L 184.235294 170.868847 
L 180.505348 172.067331 
L 176.775401 173.105209 
L 173.045455 173.982481 
z
" style="fill:#2ca02c;"/>
   </g>
   <g id="PolyCollection_4">
    <path clip-path="url(#pd5ece526e2)" d="M 173.045455 173.982481 
L 173.045455 173.982481 
L 176.775401 173.105209 
L 180.505348 172.067331 
L 184.235294 170.868847 
L 187.965241 169.509756 
L 191.695187 167.990058 
L 195.425134 166.309755 
L 199.15508 164.869522 
L 202.885027 164.070036 
L 206.614973 163.911299 
L 210.34492 164.39331 
L 214.074866 165.230523 
L 217.804813 166.137391 
L 221.534759 167.113915 
L 225.264706 168.160095 
L 228.994652 169.145994 
L 232.724599 169.941675 
L 236.454545 170.547138 
L 240.184492 170.962383 
L 243.914439 171.091558 
L 247.644385 170.83881 
L 251.374332 170.20414 
L 255.104278 169.187547 
L 258.834225 167.964337 
L 262.564171 166.709816 
L 266.294118 165.423984 
L 270.024064 164.106841 
L 273.754011 162.784013 
L 277.483957 161.481127 
L 281.213904 160.198182 
L 284.94385 158.935179 
L 288.673797 156.154725 
L 292.403743 150.319431 
L 296.13369 141.429295 
L 299.863636 129.484318 
L 303.593583 119.4303 
L 307.323529 116.213045 
L 311.053476 119.83255 
L 314.783422 130.288818 
L 318.513369 142.124654 
L 322.243316 149.882869 
L 325.973262 153.563461 
L 329.703209 153.16643 
L 333.433155 151.494402 
L 337.163102 151.349999 
L 340.893048 152.733222 
L 344.622995 155.644071 
L 348.352941 157.967162 
L 352.082888 157.587109 
L 355.812834 154.503913 
L 359.542781 148.717574 
L 363.272727 142.940937 
L 367.002674 139.886845 
L 370.73262 139.555299 
L 374.462567 141.946299 
L 378.192513 145.293696 
L 381.92246 147.831338 
L 385.652406 149.559227 
L 389.382353 150.477362 
L 393.112299 151.214321 
L 396.842246 152.398681 
L 400.572193 154.030442 
L 404.302139 156.109605 
L 408.032086 158.598443 
L 411.762032 161.459232 
L 415.491979 164.69197 
L 419.221925 168.296659 
L 422.951872 171.207184 
L 426.681818 172.357432 
L 430.411765 171.747402 
L 434.141711 169.377095 
L 437.871658 165.964313 
L 441.601604 162.22686 
L 445.331551 158.164736 
L 449.061497 153.77794 
L 452.791444 150.821414 
L 456.52139 151.050099 
L 460.251337 154.463996 
L 463.981283 161.063105 
L 467.71123 167.102044 
L 471.441176 168.835434 
L 475.171123 166.263275 
L 478.90107 159.385567 
L 482.631016 152.407583 
L 486.360963 149.5346 
L 490.090909 150.766617 
L 493.820856 156.103634 
L 497.550802 160.98655 
L 501.280749 160.856261 
L 505.010695 155.712769 
L 508.740642 145.556074 
L 512.470588 136.224053 
L 516.200535 133.554585 
L 519.930481 137.547669 
L 523.660428 148.203307 
L 527.390374 159.703696 
L 531.120321 166.231037 
L 534.850267 167.785329 
L 538.580214 164.366572 
L 542.31016 159.185804 
L 546.040107 155.454062 
L 549.770053 153.171347 
L 553.5 152.337658 
L 557.229947 152.493499 
L 560.959893 153.17937 
L 564.68984 154.395272 
L 568.419786 156.141206 
L 572.149733 157.731619 
L 575.879679 158.480958 
L 579.609626 158.389225 
L 583.339572 157.456419 
L 587.069519 156.079267 
L 590.799465 154.654499 
L 594.529412 153.182113 
L 598.259358 151.662111 
L 601.989305 150.421778 
L 605.719251 149.788399 
L 609.449198 149.761976 
L 613.179144 150.342508 
L 616.909091 151.198801 
L 620.639037 151.99966 
L 624.368984 152.745085 
L 628.09893 153.435076 
L 631.828877 154.257756 
L 635.558824 155.401249 
L 639.28877 156.865555 
L 643.018717 158.650673 
L 646.748663 160.285468 
L 650.47861 161.298804 
L 654.208556 161.69068 
L 657.938503 161.461098 
L 661.668449 161.282219 
L 665.398396 161.826209 
L 669.128342 163.093066 
L 672.858289 165.082792 
L 676.588235 166.581055 
L 680.318182 166.373524 
L 684.048128 164.4602 
L 687.778075 160.841084 
L 691.508021 156.737638 
L 695.237968 153.371326 
L 698.967914 150.74215 
L 702.697861 148.850108 
L 706.427807 147.448074 
L 710.157754 146.288918 
L 713.887701 145.372642 
L 717.617647 144.699244 
L 721.347594 144.801182 
L 725.07754 146.210912 
L 728.807487 148.928435 
L 732.537433 152.953749 
L 736.26738 156.901151 
L 739.997326 159.384937 
L 743.727273 160.405105 
L 747.457219 159.961657 
L 751.187166 158.811871 
L 754.917112 157.713028 
L 758.647059 156.665127 
L 762.377005 155.668169 
L 766.106952 155.214417 
L 769.836898 155.796135 
L 773.566845 157.413324 
L 777.296791 160.065984 
L 781.026738 162.002977 
L 784.756684 161.473169 
L 788.486631 158.476559 
L 792.216578 153.013147 
L 795.946524 147.893494 
L 799.676471 145.928162 
L 803.406417 147.117149 
L 807.136364 151.460457 
L 810.86631 156.38166 
L 814.596257 159.304333 
L 818.326203 160.228476 
L 822.05615 159.154089 
L 825.786096 157.148212 
L 829.516043 155.277887 
L 833.245989 153.543112 
L 836.975936 151.943887 
L 840.705882 150.655629 
L 844.435829 149.85375 
L 848.165775 149.538252 
L 851.895722 149.709135 
L 855.625668 149.689193 
L 859.355615 148.801222 
L 863.085561 147.045221 
L 866.815508 144.421192 
L 870.545455 142.755011 
L 874.275401 143.872556 
L 878.005348 147.773827 
L 881.735294 154.458824 
L 885.465241 160.818941 
L 889.195187 163.745572 
L 892.925134 163.238718 
L 896.65508 159.298379 
L 900.385027 154.795192 
L 904.114973 152.599794 
L 907.84492 152.712185 
L 911.574866 155.132365 
L 915.304813 157.979262 
L 919.034759 159.371806 
L 922.764706 159.309997 
L 926.494652 157.793833 
L 930.224599 154.823317 
L 933.954545 150.398447 
L 933.954545 117.462584 
L 933.954545 117.462584 
L 930.224599 104.068672 
L 926.494652 94.747853 
L 922.764706 89.50013 
L 919.034759 88.325501 
L 915.304813 91.223966 
L 911.574866 98.195526 
L 907.84492 104.544843 
L 904.114973 105.57658 
L 900.385027 101.290736 
L 896.65508 91.687312 
L 892.925134 82.091024 
L 889.195187 77.826587 
L 885.465241 78.894003 
L 881.735294 85.293269 
L 878.005348 93.081061 
L 874.275401 98.314049 
L 870.545455 100.992236 
L 866.815508 101.11562 
L 863.085561 98.107197 
L 859.355615 91.389965 
L 855.625668 80.963923 
L 851.895722 66.829071 
L 848.165775 56.015811 
L 844.435829 55.554545 
L 840.705882 65.445275 
L 836.975936 85.687998 
L 833.245989 107.23972 
L 829.516043 121.057443 
L 825.786096 127.141167 
L 822.05615 125.490892 
L 818.326203 119.894801 
L 814.596257 114.141076 
L 810.86631 108.229717 
L 807.136364 102.160724 
L 803.406417 98.283892 
L 799.676471 98.949016 
L 795.946524 104.156096 
L 792.216578 113.905133 
L 788.486631 123.525974 
L 784.756684 128.348467 
L 781.026738 128.372613 
L 777.296791 123.598412 
L 773.566845 117.769074 
L 769.836898 114.627812 
L 766.106952 114.174624 
L 762.377005 116.409511 
L 758.647059 120.555346 
L 754.917112 125.835 
L 751.187166 132.248473 
L 747.457219 139.795765 
L 743.727273 144.154731 
L 739.997326 141.003225 
L 736.26738 130.341247 
L 732.537433 112.168798 
L 728.807487 95.125079 
L 725.07754 87.849293 
L 721.347594 90.341441 
L 717.617647 102.601522 
L 713.887701 116.551831 
L 710.157754 124.114662 
L 706.427807 125.290015 
L 702.697861 120.077891 
L 698.967914 114.187077 
L 695.237968 113.326363 
L 691.508021 117.495749 
L 687.778075 126.695234 
L 684.048128 136.966058 
L 680.318182 144.349459 
L 676.588235 148.845438 
L 672.858289 150.453994 
L 669.128342 150.498431 
L 665.398396 150.30205 
L 661.668449 149.864852 
L 657.938503 149.186836 
L 654.208556 148.361504 
L 650.47861 147.482358 
L 646.748663 146.549399 
L 643.018717 145.562625 
L 639.28877 144.207651 
L 635.558824 142.170089 
L 631.828877 139.449939 
L 628.09893 136.047202 
L 624.368984 132.326421 
L 620.639037 128.652142 
L 616.909091 125.024364 
L 613.179144 121.443087 
L 609.449198 117.989152 
L 605.719251 114.743398 
L 601.989305 111.705825 
L 598.259358 108.876434 
L 594.529412 107.69982 
L 590.799465 109.620581 
L 587.069519 114.638716 
L 583.339572 122.754225 
L 579.609626 130.984787 
L 575.879679 136.348083 
L 572.149733 138.844111 
L 568.419786 138.472873 
L 564.68984 137.184896 
L 560.959893 136.930709 
L 557.229947 137.710312 
L 553.5 139.523706 
L 549.770053 140.373274 
L 546.040107 138.2614 
L 542.31016 133.188083 
L 538.580214 125.153325 
L 534.850267 116.831501 
L 531.120321 110.896991 
L 527.390374 107.349794 
L 523.660428 106.189909 
L 519.930481 107.549188 
L 516.200535 111.559479 
L 512.470588 118.220783 
L 508.740642 127.533099 
L 505.010695 136.477246 
L 501.280749 142.034042 
L 497.550802 144.203488 
L 493.820856 142.985582 
L 490.090909 141.058557 
L 486.360963 141.100642 
L 482.631016 143.111838 
L 478.90107 147.092144 
L 475.171123 150.531992 
L 471.441176 150.921814 
L 467.71123 148.26161 
L 463.981283 142.55138 
L 460.251337 136.592031 
L 456.52139 133.184473 
L 452.791444 132.328706 
L 449.061497 134.024729 
L 445.331551 136.331876 
L 441.601604 137.309481 
L 437.871658 136.957544 
L 434.141711 135.276064 
L 430.411765 131.197568 
L 426.681818 123.654582 
L 422.951872 112.647106 
L 419.221925 98.175141 
L 415.491979 85.628251 
L 411.762032 80.396004 
L 408.032086 82.4784 
L 404.302139 91.875438 
L 400.572193 102.675885 
L 396.842246 108.968508 
L 393.112299 110.753308 
L 389.382353 108.030283 
L 385.652406 103.250473 
L 381.92246 98.864915 
L 378.192513 94.873609 
L 374.462567 91.276556 
L 370.73262 88.583222 
L 367.002674 87.303075 
L 363.272727 87.436116 
L 359.542781 88.982344 
L 355.812834 91.448298 
L 352.082888 94.340514 
L 348.352941 97.658994 
L 344.622995 101.403738 
L 340.893048 105.543969 
L 337.163102 110.048913 
L 333.433155 114.91857 
L 329.703209 120.15294 
L 325.973262 122.92503 
L 322.243316 120.40785 
L 318.513369 112.601399 
L 314.783422 99.505678 
L 311.053476 88.258577 
L 307.323529 85.997988 
L 303.593583 92.723911 
L 299.863636 108.436345 
L 296.13369 126.472424 
L 292.403743 140.16928 
L 288.673797 149.526913 
L 284.94385 154.545324 
L 281.213904 157.129405 
L 277.483957 159.184048 
L 273.754011 160.709255 
L 270.024064 161.705024 
L 266.294118 162.490433 
L 262.564171 163.384563 
L 258.834225 164.387411 
L 255.104278 165.498978 
L 251.374332 166.474779 
L 247.644385 167.070329 
L 243.914439 167.285628 
L 240.184492 167.120675 
L 236.454545 166.660373 
L 232.724599 165.989623 
L 228.994652 165.108426 
L 225.264706 164.016781 
L 221.534759 163.029285 
L 217.804813 162.460535 
L 214.074866 162.31053 
L 210.34492 162.579271 
L 206.614973 163.191019 
L 202.885027 164.070036 
L 199.15508 165.216323 
L 195.425134 166.629879 
L 191.695187 168.123444 
L 187.965241 169.509756 
L 184.235294 170.788816 
L 180.505348 171.960623 
L 176.775401 173.025178 
L 173.045455 173.982481 
z
" style="fill:#d62728;"/>
   </g>
   <g id="matplotlib.axis_1">
    <g id="xtick_1">
     <g id="line2d_1">
      <defs>
       <path d="M 0 0 
L 0 3.5 
" id="m2af933c045" style="stroke:#000000;stroke-width:0.8;"/>
      </defs>
      <g>
       <use style="stroke:#000000;stroke-width:0.8;" x="173.045455" xlink:href="#m2af933c045" y="315"/>
      </g>
     </g>
     <g id="text_1">
      <!-- 2020-01 -->
      <defs>
       <path d="M 19.1875 8.296875 
L 53.609375 8.296875 
L 53.609375 0 
L 7.328125 0 
L 7.328125 8.296875 
Q 12.9375 14.109375 22.625 23.890625 
Q 32.328125 33.6875 34.8125 36.53125 
Q 39.546875 41.84375 41.421875 45.53125 
Q 43.3125 49.21875 43.3125 52.78125 
Q 43.3125 58.59375 39.234375 62.25 
Q 35.15625 65.921875 28.609375 65.921875 
Q 23.96875 65.921875 18.8125 64.3125 
Q 13.671875 62.703125 7.8125 59.421875 
L 7.8125 69.390625 
Q 13.765625 71.78125 18.9375 73 
Q 24.125 74.21875 28.421875 74.21875 
Q 39.75 74.21875 46.484375 68.546875 
Q 53.21875 62.890625 53.21875 53.421875 
Q 53.21875 48.921875 51.53125 44.890625 
Q 49.859375 40.875 45.40625 35.40625 
Q 44.1875 33.984375 37.640625 27.21875 
Q 31.109375 20.453125 19.1875 8.296875 
z
" id="DejaVuSans-50"/>
       <path d="M 31.78125 66.40625 
Q 24.171875 66.40625 20.328125 58.90625 
Q 16.5 51.421875 16.5 36.375 
Q 16.5 21.390625 20.328125 13.890625 
Q 24.171875 6.390625 31.78125 6.390625 
Q 39.453125 6.390625 43.28125 13.890625 
Q 47.125 21.390625 47.125 36.375 
Q 47.125 51.421875 43.28125 58.90625 
Q 39.453125 66.40625 31.78125 66.40625 
z
M 31.78125 74.21875 
Q 44.046875 74.21875 50.515625 64.515625 
Q 56.984375 54.828125 56.984375 36.375 
Q 56.984375 17.96875 50.515625 8.265625 
Q 44.046875 -1.421875 31.78125 -1.421875 
Q 19.53125 -1.421875 13.0625 8.265625 
Q 6.59375 17.96875 6.59375 36.375 
Q 6.59375 54.828125 13.0625 64.515625 
Q 19.53125 74.21875 31.78125 74.21875 
z
" id="DejaVuSans-48"/>
       <path d="M 4.890625 31.390625 
L 31.203125 31.390625 
L 31.203125 23.390625 
L 4.890625 23.390625 
z
" id="DejaVuSans-45"/>
       <path d="M 12.40625 8.296875 
L 28.515625 8.296875 
L 28.515625 63.921875 
L 10.984375 60.40625 
L 10.984375 69.390625 
L 28.421875 72.90625 
L 38.28125 72.90625 
L 38.28125 8.296875 
L 54.390625 8.296875 
L 54.390625 0 
L 12.40625 0 
z
" id="DejaVuSans-49"/>
      </defs>
      <g transform="translate(152.154048 329.598437)scale(0.1 -0.1)">
       <use xlink:href="#DejaVuSans-50"/>
       <use x="63.623047" xlink:href="#DejaVuSans-48"/>
       <use x="127.246094" xlink:href="#DejaVuSans-50"/>
       <use x="190.869141" xlink:href="#DejaVuSans-48"/>
       <use x="254.492188" xlink:href="#DejaVuSans-45"/>
       <use x="290.576172" xlink:href="#DejaVuSans-48"/>
       <use x="354.199219" xlink:href="#DejaVuSans-49"/>
      </g>
     </g>
    </g>
    <g id="xtick_2">
     <g id="line2d_2">
      <g>
       <use style="stroke:#000000;stroke-width:0.8;" x="284.94385" xlink:href="#m2af933c045" y="315"/>
      </g>
     </g>
     <g id="text_2">
      <!-- 2020-03 -->
      <defs>
       <path d="M 40.578125 39.3125 
Q 47.65625 37.796875 51.625 33 
Q 55.609375 28.21875 55.609375 21.1875 
Q 55.609375 10.40625 48.1875 4.484375 
Q 40.765625 -1.421875 27.09375 -1.421875 
Q 22.515625 -1.421875 17.65625 -0.515625 
Q 12.796875 0.390625 7.625 2.203125 
L 7.625 11.71875 
Q 11.71875 9.328125 16.59375 8.109375 
Q 21.484375 6.890625 26.8125 6.890625 
Q 36.078125 6.890625 40.9375 10.546875 
Q 45.796875 14.203125 45.796875 21.1875 
Q 45.796875 27.640625 41.28125 31.265625 
Q 36.765625 34.90625 28.71875 34.90625 
L 20.21875 34.90625 
L 20.21875 43.015625 
L 29.109375 43.015625 
Q 36.375 43.015625 40.234375 45.921875 
Q 44.09375 48.828125 44.09375 54.296875 
Q 44.09375 59.90625 40.109375 62.90625 
Q 36.140625 65.921875 28.71875 65.921875 
Q 24.65625 65.921875 20.015625 65.03125 
Q 15.375 64.15625 9.8125 62.3125 
L 9.8125 71.09375 
Q 15.4375 72.65625 20.34375 73.4375 
Q 25.25 74.21875 29.59375 74.21875 
Q 40.828125 74.21875 47.359375 69.109375 
Q 53.90625 64.015625 53.90625 55.328125 
Q 53.90625 49.265625 50.4375 45.09375 
Q 46.96875 40.921875 40.578125 39.3125 
z
" id="DejaVuSans-51"/>
      </defs>
      <g transform="translate(264.052444 329.598437)scale(0.1 -0.1)">
       <use xlink:href="#DejaVuSans-50"/>
       <use x="63.623047" xlink:href="#DejaVuSans-48"/>
       <use x="127.246094" xlink:href="#DejaVuSans-50"/>
       <use x="190.869141" xlink:href="#DejaVuSans-48"/>
       <use x="254.492188" xlink:href="#DejaVuSans-45"/>
       <use x="290.576172" xlink:href="#DejaVuSans-48"/>
       <use x="354.199219" xlink:href="#DejaVuSans-51"/>
      </g>
     </g>
    </g>
    <g id="xtick_3">
     <g id="line2d_3">
      <g>
       <use style="stroke:#000000;stroke-width:0.8;" x="398.707219" xlink:href="#m2af933c045" y="315"/>
      </g>
     </g>
     <g id="text_3">
      <!-- 2020-05 -->
      <defs>
       <path d="M 10.796875 72.90625 
L 49.515625 72.90625 
L 49.515625 64.59375 
L 19.828125 64.59375 
L 19.828125 46.734375 
Q 21.96875 47.46875 24.109375 47.828125 
Q 26.265625 48.1875 28.421875 48.1875 
Q 40.625 48.1875 47.75 41.5 
Q 54.890625 34.8125 54.890625 23.390625 
Q 54.890625 11.625 47.5625 5.09375 
Q 40.234375 -1.421875 26.90625 -1.421875 
Q 22.3125 -1.421875 17.546875 -0.640625 
Q 12.796875 0.140625 7.71875 1.703125 
L 7.71875 11.625 
Q 12.109375 9.234375 16.796875 8.0625 
Q 21.484375 6.890625 26.703125 6.890625 
Q 35.15625 6.890625 40.078125 11.328125 
Q 45.015625 15.765625 45.015625 23.390625 
Q 45.015625 31 40.078125 35.4375 
Q 35.15625 39.890625 26.703125 39.890625 
Q 22.75 39.890625 18.8125 39.015625 
Q 14.890625 38.140625 10.796875 36.28125 
z
" id="DejaVuSans-53"/>
      </defs>
      <g transform="translate(377.815813 329.598437)scale(0.1 -0.1)">
       <use xlink:href="#DejaVuSans-50"/>
       <use x="63.623047" xlink:href="#DejaVuSans-48"/>
       <use x="127.246094" xlink:href="#DejaVuSans-50"/>
       <use x="190.869141" xlink:href="#DejaVuSans-48"/>
       <use x="254.492188" xlink:href="#DejaVuSans-45"/>
       <use x="290.576172" xlink:href="#DejaVuSans-48"/>
       <use x="354.199219" xlink:href="#DejaVuSans-53"/>
      </g>
     </g>
    </g>
    <g id="xtick_4">
     <g id="line2d_4">
      <g>
       <use style="stroke:#000000;stroke-width:0.8;" x="512.470588" xlink:href="#m2af933c045" y="315"/>
      </g>
     </g>
     <g id="text_4">
      <!-- 2020-07 -->
      <defs>
       <path d="M 8.203125 72.90625 
L 55.078125 72.90625 
L 55.078125 68.703125 
L 28.609375 0 
L 18.3125 0 
L 43.21875 64.59375 
L 8.203125 64.59375 
z
" id="DejaVuSans-55"/>
      </defs>
      <g transform="translate(491.579182 329.598437)scale(0.1 -0.1)">
       <use xlink:href="#DejaVuSans-50"/>
       <use x="63.623047" xlink:href="#DejaVuSans-48"/>
       <use x="127.246094" xlink:href="#DejaVuSans-50"/>
       <use x="190.869141" xlink:href="#DejaVuSans-48"/>
       <use x="254.492188" xlink:href="#DejaVuSans-45"/>
       <use x="290.576172" xlink:href="#DejaVuSans-48"/>
       <use x="354.199219" xlink:href="#DejaVuSans-55"/>
      </g>
     </g>
    </g>
    <g id="xtick_5">
     <g id="line2d_5">
      <g>
       <use style="stroke:#000000;stroke-width:0.8;" x="628.09893" xlink:href="#m2af933c045" y="315"/>
      </g>
     </g>
     <g id="text_5">
      <!-- 2020-09 -->
      <defs>
       <path d="M 10.984375 1.515625 
L 10.984375 10.5 
Q 14.703125 8.734375 18.5 7.8125 
Q 22.3125 6.890625 25.984375 6.890625 
Q 35.75 6.890625 40.890625 13.453125 
Q 46.046875 20.015625 46.78125 33.40625 
Q 43.953125 29.203125 39.59375 26.953125 
Q 35.25 24.703125 29.984375 24.703125 
Q 19.046875 24.703125 12.671875 31.3125 
Q 6.296875 37.9375 6.296875 49.421875 
Q 6.296875 60.640625 12.9375 67.421875 
Q 19.578125 74.21875 30.609375 74.21875 
Q 43.265625 74.21875 49.921875 64.515625 
Q 56.59375 54.828125 56.59375 36.375 
Q 56.59375 19.140625 48.40625 8.859375 
Q 40.234375 -1.421875 26.421875 -1.421875 
Q 22.703125 -1.421875 18.890625 -0.6875 
Q 15.09375 0.046875 10.984375 1.515625 
z
M 30.609375 32.421875 
Q 37.25 32.421875 41.125 36.953125 
Q 45.015625 41.5 45.015625 49.421875 
Q 45.015625 57.28125 41.125 61.84375 
Q 37.25 66.40625 30.609375 66.40625 
Q 23.96875 66.40625 20.09375 61.84375 
Q 16.21875 57.28125 16.21875 49.421875 
Q 16.21875 41.5 20.09375 36.953125 
Q 23.96875 32.421875 30.609375 32.421875 
z
" id="DejaVuSans-57"/>
      </defs>
      <g transform="translate(607.207524 329.598437)scale(0.1 -0.1)">
       <use xlink:href="#DejaVuSans-50"/>
       <use x="63.623047" xlink:href="#DejaVuSans-48"/>
       <use x="127.246094" xlink:href="#DejaVuSans-50"/>
       <use x="190.869141" xlink:href="#DejaVuSans-48"/>
       <use x="254.492188" xlink:href="#DejaVuSans-45"/>
       <use x="290.576172" xlink:href="#DejaVuSans-48"/>
       <use x="354.199219" xlink:href="#DejaVuSans-57"/>
      </g>
     </g>
    </g>
    <g id="xtick_6">
     <g id="line2d_6">
      <g>
       <use style="stroke:#000000;stroke-width:0.8;" x="741.862299" xlink:href="#m2af933c045" y="315"/>
      </g>
     </g>
     <g id="text_6">
      <!-- 2020-11 -->
      <g transform="translate(720.970893 329.598437)scale(0.1 -0.1)">
       <use xlink:href="#DejaVuSans-50"/>
       <use x="63.623047" xlink:href="#DejaVuSans-48"/>
       <use x="127.246094" xlink:href="#DejaVuSans-50"/>
       <use x="190.869141" xlink:href="#DejaVuSans-48"/>
       <use x="254.492188" xlink:href="#DejaVuSans-45"/>
       <use x="290.576172" xlink:href="#DejaVuSans-49"/>
       <use x="354.199219" xlink:href="#DejaVuSans-49"/>
      </g>
     </g>
    </g>
    <g id="xtick_7">
     <g id="line2d_7">
      <g>
       <use style="stroke:#000000;stroke-width:0.8;" x="855.625668" xlink:href="#m2af933c045" y="315"/>
      </g>
     </g>
     <g id="text_7">
      <!-- 2021-01 -->
      <g transform="translate(834.734262 329.598437)scale(0.1 -0.1)">
       <use xlink:href="#DejaVuSans-50"/>
       <use x="63.623047" xlink:href="#DejaVuSans-48"/>
       <use x="127.246094" xlink:href="#DejaVuSans-50"/>
       <use x="190.869141" xlink:href="#DejaVuSans-49"/>
       <use x="254.492188" xlink:href="#DejaVuSans-45"/>
       <use x="290.576172" xlink:href="#DejaVuSans-48"/>
       <use x="354.199219" xlink:href="#DejaVuSans-49"/>
      </g>
     </g>
    </g>
    <g id="xtick_8">
     <g id="line2d_8">
      <g>
       <use style="stroke:#000000;stroke-width:0.8;" x="965.659091" xlink:href="#m2af933c045" y="315"/>
      </g>
     </g>
     <g id="text_8">
      <!-- 2021-03 -->
      <g transform="translate(944.767685 329.598437)scale(0.1 -0.1)">
       <use xlink:href="#DejaVuSans-50"/>
       <use x="63.623047" xlink:href="#DejaVuSans-48"/>
       <use x="127.246094" xlink:href="#DejaVuSans-50"/>
       <use x="190.869141" xlink:href="#DejaVuSans-49"/>
       <use x="254.492188" xlink:href="#DejaVuSans-45"/>
       <use x="290.576172" xlink:href="#DejaVuSans-48"/>
       <use x="354.199219" xlink:href="#DejaVuSans-51"/>
      </g>
     </g>
    </g>
   </g>
   <g id="matplotlib.axis_2">
    <g id="ytick_1">
     <g id="line2d_9">
      <defs>
       <path d="M 0 0 
L -3.5 0 
" id="mf071fd12ff" style="stroke:#000000;stroke-width:0.8;"/>
      </defs>
      <g>
       <use style="stroke:#000000;stroke-width:0.8;" x="135" xlink:href="#mf071fd12ff" y="313.403354"/>
      </g>
     </g>
     <g id="text_9">
      <!-- 0.08 -->
      <defs>
       <path d="M 10.59375 35.5 
L 73.1875 35.5 
L 73.1875 27.203125 
L 10.59375 27.203125 
z
" id="DejaVuSans-8722"/>
       <path d="M 10.6875 12.40625 
L 21 12.40625 
L 21 0 
L 10.6875 0 
z
" id="DejaVuSans-46"/>
       <path d="M 31.78125 34.625 
Q 24.75 34.625 20.71875 30.859375 
Q 16.703125 27.09375 16.703125 20.515625 
Q 16.703125 13.921875 20.71875 10.15625 
Q 24.75 6.390625 31.78125 6.390625 
Q 38.8125 6.390625 42.859375 10.171875 
Q 46.921875 13.96875 46.921875 20.515625 
Q 46.921875 27.09375 42.890625 30.859375 
Q 38.875 34.625 31.78125 34.625 
z
M 21.921875 38.8125 
Q 15.578125 40.375 12.03125 44.71875 
Q 8.5 49.078125 8.5 55.328125 
Q 8.5 64.0625 14.71875 69.140625 
Q 20.953125 74.21875 31.78125 74.21875 
Q 42.671875 74.21875 48.875 69.140625 
Q 55.078125 64.0625 55.078125 55.328125 
Q 55.078125 49.078125 51.53125 44.71875 
Q 48 40.375 41.703125 38.8125 
Q 48.828125 37.15625 52.796875 32.3125 
Q 56.78125 27.484375 56.78125 20.515625 
Q 56.78125 9.90625 50.3125 4.234375 
Q 43.84375 -1.421875 31.78125 -1.421875 
Q 19.734375 -1.421875 13.25 4.234375 
Q 6.78125 9.90625 6.78125 20.515625 
Q 6.78125 27.484375 10.78125 32.3125 
Q 14.796875 37.15625 21.921875 38.8125 
z
M 18.3125 54.390625 
Q 18.3125 48.734375 21.84375 45.5625 
Q 25.390625 42.390625 31.78125 42.390625 
Q 38.140625 42.390625 41.71875 45.5625 
Q 45.3125 48.734375 45.3125 54.390625 
Q 45.3125 60.0625 41.71875 63.234375 
Q 38.140625 66.40625 31.78125 66.40625 
Q 25.390625 66.40625 21.84375 63.234375 
Q 18.3125 60.0625 18.3125 54.390625 
z
" id="DejaVuSans-56"/>
      </defs>
      <g transform="translate(97.354687 317.202573)scale(0.1 -0.1)">
       <use xlink:href="#DejaVuSans-8722"/>
       <use x="83.789062" xlink:href="#DejaVuSans-48"/>
       <use x="147.412109" xlink:href="#DejaVuSans-46"/>
       <use x="179.199219" xlink:href="#DejaVuSans-48"/>
       <use x="242.822266" xlink:href="#DejaVuSans-56"/>
      </g>
     </g>
    </g>
    <g id="ytick_2">
     <g id="line2d_10">
      <g>
       <use style="stroke:#000000;stroke-width:0.8;" x="135" xlink:href="#mf071fd12ff" y="278.704338"/>
      </g>
     </g>
     <g id="text_10">
      <!-- 0.06 -->
      <defs>
       <path d="M 33.015625 40.375 
Q 26.375 40.375 22.484375 35.828125 
Q 18.609375 31.296875 18.609375 23.390625 
Q 18.609375 15.53125 22.484375 10.953125 
Q 26.375 6.390625 33.015625 6.390625 
Q 39.65625 6.390625 43.53125 10.953125 
Q 47.40625 15.53125 47.40625 23.390625 
Q 47.40625 31.296875 43.53125 35.828125 
Q 39.65625 40.375 33.015625 40.375 
z
M 52.59375 71.296875 
L 52.59375 62.3125 
Q 48.875 64.0625 45.09375 64.984375 
Q 41.3125 65.921875 37.59375 65.921875 
Q 27.828125 65.921875 22.671875 59.328125 
Q 17.53125 52.734375 16.796875 39.40625 
Q 19.671875 43.65625 24.015625 45.921875 
Q 28.375 48.1875 33.59375 48.1875 
Q 44.578125 48.1875 50.953125 41.515625 
Q 57.328125 34.859375 57.328125 23.390625 
Q 57.328125 12.15625 50.6875 5.359375 
Q 44.046875 -1.421875 33.015625 -1.421875 
Q 20.359375 -1.421875 13.671875 8.265625 
Q 6.984375 17.96875 6.984375 36.375 
Q 6.984375 53.65625 15.1875 63.9375 
Q 23.390625 74.21875 37.203125 74.21875 
Q 40.921875 74.21875 44.703125 73.484375 
Q 48.484375 72.75 52.59375 71.296875 
z
" id="DejaVuSans-54"/>
      </defs>
      <g transform="translate(97.354687 282.503557)scale(0.1 -0.1)">
       <use xlink:href="#DejaVuSans-8722"/>
       <use x="83.789062" xlink:href="#DejaVuSans-48"/>
       <use x="147.412109" xlink:href="#DejaVuSans-46"/>
       <use x="179.199219" xlink:href="#DejaVuSans-48"/>
       <use x="242.822266" xlink:href="#DejaVuSans-54"/>
      </g>
     </g>
    </g>
    <g id="ytick_3">
     <g id="line2d_11">
      <g>
       <use style="stroke:#000000;stroke-width:0.8;" x="135" xlink:href="#mf071fd12ff" y="244.005323"/>
      </g>
     </g>
     <g id="text_11">
      <!-- 0.04 -->
      <defs>
       <path d="M 37.796875 64.3125 
L 12.890625 25.390625 
L 37.796875 25.390625 
z
M 35.203125 72.90625 
L 47.609375 72.90625 
L 47.609375 25.390625 
L 58.015625 25.390625 
L 58.015625 17.1875 
L 47.609375 17.1875 
L 47.609375 0 
L 37.796875 0 
L 37.796875 17.1875 
L 4.890625 17.1875 
L 4.890625 26.703125 
z
" id="DejaVuSans-52"/>
      </defs>
      <g transform="translate(97.354687 247.804542)scale(0.1 -0.1)">
       <use xlink:href="#DejaVuSans-8722"/>
       <use x="83.789062" xlink:href="#DejaVuSans-48"/>
       <use x="147.412109" xlink:href="#DejaVuSans-46"/>
       <use x="179.199219" xlink:href="#DejaVuSans-48"/>
       <use x="242.822266" xlink:href="#DejaVuSans-52"/>
      </g>
     </g>
    </g>
    <g id="ytick_4">
     <g id="line2d_12">
      <g>
       <use style="stroke:#000000;stroke-width:0.8;" x="135" xlink:href="#mf071fd12ff" y="209.306307"/>
      </g>
     </g>
     <g id="text_12">
      <!-- 0.02 -->
      <g transform="translate(97.354687 213.105526)scale(0.1 -0.1)">
       <use xlink:href="#DejaVuSans-8722"/>
       <use x="83.789062" xlink:href="#DejaVuSans-48"/>
       <use x="147.412109" xlink:href="#DejaVuSans-46"/>
       <use x="179.199219" xlink:href="#DejaVuSans-48"/>
       <use x="242.822266" xlink:href="#DejaVuSans-50"/>
      </g>
     </g>
    </g>
    <g id="ytick_5">
     <g id="line2d_13">
      <g>
       <use style="stroke:#000000;stroke-width:0.8;" x="135" xlink:href="#mf071fd12ff" y="174.607292"/>
      </g>
     </g>
     <g id="text_13">
      <!-- 0.00 -->
      <g transform="translate(105.734375 178.40651)scale(0.1 -0.1)">
       <use xlink:href="#DejaVuSans-48"/>
       <use x="63.623047" xlink:href="#DejaVuSans-46"/>
       <use x="95.410156" xlink:href="#DejaVuSans-48"/>
       <use x="159.033203" xlink:href="#DejaVuSans-48"/>
      </g>
     </g>
    </g>
    <g id="ytick_6">
     <g id="line2d_14">
      <g>
       <use style="stroke:#000000;stroke-width:0.8;" x="135" xlink:href="#mf071fd12ff" y="139.908276"/>
      </g>
     </g>
     <g id="text_14">
      <!-- 0.02 -->
      <g transform="translate(105.734375 143.707495)scale(0.1 -0.1)">
       <use xlink:href="#DejaVuSans-48"/>
       <use x="63.623047" xlink:href="#DejaVuSans-46"/>
       <use x="95.410156" xlink:href="#DejaVuSans-48"/>
       <use x="159.033203" xlink:href="#DejaVuSans-50"/>
      </g>
     </g>
    </g>
    <g id="ytick_7">
     <g id="line2d_15">
      <g>
       <use style="stroke:#000000;stroke-width:0.8;" x="135" xlink:href="#mf071fd12ff" y="105.20926"/>
      </g>
     </g>
     <g id="text_15">
      <!-- 0.04 -->
      <g transform="translate(105.734375 109.008479)scale(0.1 -0.1)">
       <use xlink:href="#DejaVuSans-48"/>
       <use x="63.623047" xlink:href="#DejaVuSans-46"/>
       <use x="95.410156" xlink:href="#DejaVuSans-48"/>
       <use x="159.033203" xlink:href="#DejaVuSans-52"/>
      </g>
     </g>
    </g>
    <g id="ytick_8">
     <g id="line2d_16">
      <g>
       <use style="stroke:#000000;stroke-width:0.8;" x="135" xlink:href="#mf071fd12ff" y="70.510245"/>
      </g>
     </g>
     <g id="text_16">
      <!-- 0.06 -->
      <g transform="translate(105.734375 74.309464)scale(0.1 -0.1)">
       <use xlink:href="#DejaVuSans-48"/>
       <use x="63.623047" xlink:href="#DejaVuSans-46"/>
       <use x="95.410156" xlink:href="#DejaVuSans-48"/>
       <use x="159.033203" xlink:href="#DejaVuSans-54"/>
      </g>
     </g>
    </g>
   </g>
   <g id="patch_3">
    <path d="M 135 315 
L 135 43.2 
" style="fill:none;stroke:#000000;stroke-linecap:square;stroke-linejoin:miter;stroke-width:0.8;"/>
   </g>
   <g id="patch_4">
    <path d="M 972 315 
L 972 43.2 
" style="fill:none;stroke:#000000;stroke-linecap:square;stroke-linejoin:miter;stroke-width:0.8;"/>
   </g>
   <g id="patch_5">
    <path d="M 135 315 
L 972 315 
" style="fill:none;stroke:#000000;stroke-linecap:square;stroke-linejoin:miter;stroke-width:0.8;"/>
   </g>
   <g id="patch_6">
    <path d="M 135 43.2 
L 972 43.2 
" style="fill:none;stroke:#000000;stroke-linecap:square;stroke-linejoin:miter;stroke-width:0.8;"/>
   </g>
   <g id="legend_1">
    <g id="patch_7">
     <path d="M 1007.48 315 
L 1105.689375 315 
Q 1107.689375 315 1107.689375 313 
L 1107.689375 255.2875 
Q 1107.689375 253.2875 1105.689375 253.2875 
L 1007.48 253.2875 
Q 1005.48 253.2875 1005.48 255.2875 
L 1005.48 313 
Q 1005.48 315 1007.48 315 
z
" style="fill:#ffffff;opacity:0.8;stroke:#cccccc;stroke-linejoin:miter;"/>
    </g>
    <g id="patch_8">
     <path d="M 1009.48 264.885938 
L 1029.48 264.885938 
L 1029.48 257.885938 
L 1009.48 257.885938 
z
" style="fill:#1f77b4;"/>
    </g>
    <g id="text_17">
     <!-- Impfen -->
     <defs>
      <path d="M 9.8125 72.90625 
L 19.671875 72.90625 
L 19.671875 0 
L 9.8125 0 
z
" id="DejaVuSans-73"/>
      <path d="M 52 44.1875 
Q 55.375 50.25 60.0625 53.125 
Q 64.75 56 71.09375 56 
Q 79.640625 56 84.28125 50.015625 
Q 88.921875 44.046875 88.921875 33.015625 
L 88.921875 0 
L 79.890625 0 
L 79.890625 32.71875 
Q 79.890625 40.578125 77.09375 44.375 
Q 74.3125 48.1875 68.609375 48.1875 
Q 61.625 48.1875 57.5625 43.546875 
Q 53.515625 38.921875 53.515625 30.90625 
L 53.515625 0 
L 44.484375 0 
L 44.484375 32.71875 
Q 44.484375 40.625 41.703125 44.40625 
Q 38.921875 48.1875 33.109375 48.1875 
Q 26.21875 48.1875 22.15625 43.53125 
Q 18.109375 38.875 18.109375 30.90625 
L 18.109375 0 
L 9.078125 0 
L 9.078125 54.6875 
L 18.109375 54.6875 
L 18.109375 46.1875 
Q 21.1875 51.21875 25.484375 53.609375 
Q 29.78125 56 35.6875 56 
Q 41.65625 56 45.828125 52.96875 
Q 50 49.953125 52 44.1875 
z
" id="DejaVuSans-109"/>
      <path d="M 18.109375 8.203125 
L 18.109375 -20.796875 
L 9.078125 -20.796875 
L 9.078125 54.6875 
L 18.109375 54.6875 
L 18.109375 46.390625 
Q 20.953125 51.265625 25.265625 53.625 
Q 29.59375 56 35.59375 56 
Q 45.5625 56 51.78125 48.09375 
Q 58.015625 40.1875 58.015625 27.296875 
Q 58.015625 14.40625 51.78125 6.484375 
Q 45.5625 -1.421875 35.59375 -1.421875 
Q 29.59375 -1.421875 25.265625 0.953125 
Q 20.953125 3.328125 18.109375 8.203125 
z
M 48.6875 27.296875 
Q 48.6875 37.203125 44.609375 42.84375 
Q 40.53125 48.484375 33.40625 48.484375 
Q 26.265625 48.484375 22.1875 42.84375 
Q 18.109375 37.203125 18.109375 27.296875 
Q 18.109375 17.390625 22.1875 11.75 
Q 26.265625 6.109375 33.40625 6.109375 
Q 40.53125 6.109375 44.609375 11.75 
Q 48.6875 17.390625 48.6875 27.296875 
z
" id="DejaVuSans-112"/>
      <path d="M 37.109375 75.984375 
L 37.109375 68.5 
L 28.515625 68.5 
Q 23.6875 68.5 21.796875 66.546875 
Q 19.921875 64.59375 19.921875 59.515625 
L 19.921875 54.6875 
L 34.71875 54.6875 
L 34.71875 47.703125 
L 19.921875 47.703125 
L 19.921875 0 
L 10.890625 0 
L 10.890625 47.703125 
L 2.296875 47.703125 
L 2.296875 54.6875 
L 10.890625 54.6875 
L 10.890625 58.5 
Q 10.890625 67.625 15.140625 71.796875 
Q 19.390625 75.984375 28.609375 75.984375 
z
" id="DejaVuSans-102"/>
      <path d="M 56.203125 29.59375 
L 56.203125 25.203125 
L 14.890625 25.203125 
Q 15.484375 15.921875 20.484375 11.0625 
Q 25.484375 6.203125 34.421875 6.203125 
Q 39.59375 6.203125 44.453125 7.46875 
Q 49.3125 8.734375 54.109375 11.28125 
L 54.109375 2.78125 
Q 49.265625 0.734375 44.1875 -0.34375 
Q 39.109375 -1.421875 33.890625 -1.421875 
Q 20.796875 -1.421875 13.15625 6.1875 
Q 5.515625 13.8125 5.515625 26.8125 
Q 5.515625 40.234375 12.765625 48.109375 
Q 20.015625 56 32.328125 56 
Q 43.359375 56 49.78125 48.890625 
Q 56.203125 41.796875 56.203125 29.59375 
z
M 47.21875 32.234375 
Q 47.125 39.59375 43.09375 43.984375 
Q 39.0625 48.390625 32.421875 48.390625 
Q 24.90625 48.390625 20.390625 44.140625 
Q 15.875 39.890625 15.1875 32.171875 
z
" id="DejaVuSans-101"/>
      <path d="M 54.890625 33.015625 
L 54.890625 0 
L 45.90625 0 
L 45.90625 32.71875 
Q 45.90625 40.484375 42.875 44.328125 
Q 39.84375 48.1875 33.796875 48.1875 
Q 26.515625 48.1875 22.3125 43.546875 
Q 18.109375 38.921875 18.109375 30.90625 
L 18.109375 0 
L 9.078125 0 
L 9.078125 54.6875 
L 18.109375 54.6875 
L 18.109375 46.1875 
Q 21.34375 51.125 25.703125 53.5625 
Q 30.078125 56 35.796875 56 
Q 45.21875 56 50.046875 50.171875 
Q 54.890625 44.34375 54.890625 33.015625 
z
" id="DejaVuSans-110"/>
     </defs>
     <g transform="translate(1037.48 264.885938)scale(0.1 -0.1)">
      <use xlink:href="#DejaVuSans-73"/>
      <use x="29.492188" xlink:href="#DejaVuSans-109"/>
      <use x="126.904297" xlink:href="#DejaVuSans-112"/>
      <use x="190.380859" xlink:href="#DejaVuSans-102"/>
      <use x="225.585938" xlink:href="#DejaVuSans-101"/>
      <use x="287.109375" xlink:href="#DejaVuSans-110"/>
     </g>
    </g>
    <g id="patch_9">
     <path d="M 1009.48 279.564062 
L 1029.48 279.564062 
L 1029.48 272.564062 
L 1009.48 272.564062 
z
" style="fill:#ff7f0e;"/>
    </g>
    <g id="text_18">
     <!-- Masken -->
     <defs>
      <path d="M 9.8125 72.90625 
L 24.515625 72.90625 
L 43.109375 23.296875 
L 61.8125 72.90625 
L 76.515625 72.90625 
L 76.515625 0 
L 66.890625 0 
L 66.890625 64.015625 
L 48.09375 14.015625 
L 38.1875 14.015625 
L 19.390625 64.015625 
L 19.390625 0 
L 9.8125 0 
z
" id="DejaVuSans-77"/>
      <path d="M 34.28125 27.484375 
Q 23.390625 27.484375 19.1875 25 
Q 14.984375 22.515625 14.984375 16.5 
Q 14.984375 11.71875 18.140625 8.90625 
Q 21.296875 6.109375 26.703125 6.109375 
Q 34.1875 6.109375 38.703125 11.40625 
Q 43.21875 16.703125 43.21875 25.484375 
L 43.21875 27.484375 
z
M 52.203125 31.203125 
L 52.203125 0 
L 43.21875 0 
L 43.21875 8.296875 
Q 40.140625 3.328125 35.546875 0.953125 
Q 30.953125 -1.421875 24.3125 -1.421875 
Q 15.921875 -1.421875 10.953125 3.296875 
Q 6 8.015625 6 15.921875 
Q 6 25.140625 12.171875 29.828125 
Q 18.359375 34.515625 30.609375 34.515625 
L 43.21875 34.515625 
L 43.21875 35.40625 
Q 43.21875 41.609375 39.140625 45 
Q 35.0625 48.390625 27.6875 48.390625 
Q 23 48.390625 18.546875 47.265625 
Q 14.109375 46.140625 10.015625 43.890625 
L 10.015625 52.203125 
Q 14.9375 54.109375 19.578125 55.046875 
Q 24.21875 56 28.609375 56 
Q 40.484375 56 46.34375 49.84375 
Q 52.203125 43.703125 52.203125 31.203125 
z
" id="DejaVuSans-97"/>
      <path d="M 44.28125 53.078125 
L 44.28125 44.578125 
Q 40.484375 46.53125 36.375 47.5 
Q 32.28125 48.484375 27.875 48.484375 
Q 21.1875 48.484375 17.84375 46.4375 
Q 14.5 44.390625 14.5 40.28125 
Q 14.5 37.15625 16.890625 35.375 
Q 19.28125 33.59375 26.515625 31.984375 
L 29.59375 31.296875 
Q 39.15625 29.25 43.1875 25.515625 
Q 47.21875 21.78125 47.21875 15.09375 
Q 47.21875 7.46875 41.1875 3.015625 
Q 35.15625 -1.421875 24.609375 -1.421875 
Q 20.21875 -1.421875 15.453125 -0.5625 
Q 10.6875 0.296875 5.421875 2 
L 5.421875 11.28125 
Q 10.40625 8.6875 15.234375 7.390625 
Q 20.0625 6.109375 24.8125 6.109375 
Q 31.15625 6.109375 34.5625 8.28125 
Q 37.984375 10.453125 37.984375 14.40625 
Q 37.984375 18.0625 35.515625 20.015625 
Q 33.0625 21.96875 24.703125 23.78125 
L 21.578125 24.515625 
Q 13.234375 26.265625 9.515625 29.90625 
Q 5.8125 33.546875 5.8125 39.890625 
Q 5.8125 47.609375 11.28125 51.796875 
Q 16.75 56 26.8125 56 
Q 31.78125 56 36.171875 55.265625 
Q 40.578125 54.546875 44.28125 53.078125 
z
" id="DejaVuSans-115"/>
      <path d="M 9.078125 75.984375 
L 18.109375 75.984375 
L 18.109375 31.109375 
L 44.921875 54.6875 
L 56.390625 54.6875 
L 27.390625 29.109375 
L 57.625 0 
L 45.90625 0 
L 18.109375 26.703125 
L 18.109375 0 
L 9.078125 0 
z
" id="DejaVuSans-107"/>
     </defs>
     <g transform="translate(1037.48 279.564062)scale(0.1 -0.1)">
      <use xlink:href="#DejaVuSans-77"/>
      <use x="86.279297" xlink:href="#DejaVuSans-97"/>
      <use x="147.558594" xlink:href="#DejaVuSans-115"/>
      <use x="199.658203" xlink:href="#DejaVuSans-107"/>
      <use x="253.943359" xlink:href="#DejaVuSans-101"/>
      <use x="315.466797" xlink:href="#DejaVuSans-110"/>
     </g>
    </g>
    <g id="patch_10">
     <path d="M 1009.48 294.242188 
L 1029.48 294.242188 
L 1029.48 287.242188 
L 1009.48 287.242188 
z
" style="fill:#2ca02c;"/>
    </g>
    <g id="text_19">
     <!-- Massnahmen -->
     <defs>
      <path d="M 54.890625 33.015625 
L 54.890625 0 
L 45.90625 0 
L 45.90625 32.71875 
Q 45.90625 40.484375 42.875 44.328125 
Q 39.84375 48.1875 33.796875 48.1875 
Q 26.515625 48.1875 22.3125 43.546875 
Q 18.109375 38.921875 18.109375 30.90625 
L 18.109375 0 
L 9.078125 0 
L 9.078125 75.984375 
L 18.109375 75.984375 
L 18.109375 46.1875 
Q 21.34375 51.125 25.703125 53.5625 
Q 30.078125 56 35.796875 56 
Q 45.21875 56 50.046875 50.171875 
Q 54.890625 44.34375 54.890625 33.015625 
z
" id="DejaVuSans-104"/>
     </defs>
     <g transform="translate(1037.48 294.242188)scale(0.1 -0.1)">
      <use xlink:href="#DejaVuSans-77"/>
      <use x="86.279297" xlink:href="#DejaVuSans-97"/>
      <use x="147.558594" xlink:href="#DejaVuSans-115"/>
      <use x="199.658203" xlink:href="#DejaVuSans-115"/>
      <use x="251.757812" xlink:href="#DejaVuSans-110"/>
      <use x="315.136719" xlink:href="#DejaVuSans-97"/>
      <use x="376.416016" xlink:href="#DejaVuSans-104"/>
      <use x="439.794922" xlink:href="#DejaVuSans-109"/>
      <use x="537.207031" xlink:href="#DejaVuSans-101"/>
      <use x="598.730469" xlink:href="#DejaVuSans-110"/>
     </g>
    </g>
    <g id="patch_11">
     <path d="M 1009.48 308.920313 
L 1029.48 308.920313 
L 1029.48 301.920313 
L 1009.48 301.920313 
z
" style="fill:#d62728;"/>
    </g>
    <g id="text_20">
     <!-- Pandemie -->
     <defs>
      <path d="M 19.671875 64.796875 
L 19.671875 37.40625 
L 32.078125 37.40625 
Q 38.96875 37.40625 42.71875 40.96875 
Q 46.484375 44.53125 46.484375 51.125 
Q 46.484375 57.671875 42.71875 61.234375 
Q 38.96875 64.796875 32.078125 64.796875 
z
M 9.8125 72.90625 
L 32.078125 72.90625 
Q 44.34375 72.90625 50.609375 67.359375 
Q 56.890625 61.8125 56.890625 51.125 
Q 56.890625 40.328125 50.609375 34.8125 
Q 44.34375 29.296875 32.078125 29.296875 
L 19.671875 29.296875 
L 19.671875 0 
L 9.8125 0 
z
" id="DejaVuSans-80"/>
      <path d="M 45.40625 46.390625 
L 45.40625 75.984375 
L 54.390625 75.984375 
L 54.390625 0 
L 45.40625 0 
L 45.40625 8.203125 
Q 42.578125 3.328125 38.25 0.953125 
Q 33.9375 -1.421875 27.875 -1.421875 
Q 17.96875 -1.421875 11.734375 6.484375 
Q 5.515625 14.40625 5.515625 27.296875 
Q 5.515625 40.1875 11.734375 48.09375 
Q 17.96875 56 27.875 56 
Q 33.9375 56 38.25 53.625 
Q 42.578125 51.265625 45.40625 46.390625 
z
M 14.796875 27.296875 
Q 14.796875 17.390625 18.875 11.75 
Q 22.953125 6.109375 30.078125 6.109375 
Q 37.203125 6.109375 41.296875 11.75 
Q 45.40625 17.390625 45.40625 27.296875 
Q 45.40625 37.203125 41.296875 42.84375 
Q 37.203125 48.484375 30.078125 48.484375 
Q 22.953125 48.484375 18.875 42.84375 
Q 14.796875 37.203125 14.796875 27.296875 
z
" id="DejaVuSans-100"/>
      <path d="M 9.421875 54.6875 
L 18.40625 54.6875 
L 18.40625 0 
L 9.421875 0 
z
M 9.421875 75.984375 
L 18.40625 75.984375 
L 18.40625 64.59375 
L 9.421875 64.59375 
z
" id="DejaVuSans-105"/>
     </defs>
     <g transform="translate(1037.48 308.920313)scale(0.1 -0.1)">
      <use xlink:href="#DejaVuSans-80"/>
      <use x="55.802734" xlink:href="#DejaVuSans-97"/>
      <use x="117.082031" xlink:href="#DejaVuSans-110"/>
      <use x="180.460938" xlink:href="#DejaVuSans-100"/>
      <use x="243.9375" xlink:href="#DejaVuSans-101"/>
      <use x="305.460938" xlink:href="#DejaVuSans-109"/>
      <use x="402.873047" xlink:href="#DejaVuSans-105"/>
      <use x="430.65625" xlink:href="#DejaVuSans-101"/>
     </g>
    </g>
   </g>
  </g>
 </g>
 <defs>
  <clipPath id="pd5ece526e2">
   <rect height="271.8" width="837" x="135" y="43.2"/>
  </clipPath>
 </defs>
</svg>
